<?xml version="1.0" standalone="no"?>
<!DOCTYPE svg PUBLIC "-//W3C//DTD SVG 1.1//EN" "http://www.w3.org/Graphics/SVG/1.1/DTD/svg11.dtd" >
<svg xmlns="http://www.w3.org/2000/svg">
<metadata>
This is a custom SVG font generated by IcoMoon.
<iconset grid="24"></iconset>
</metadata>
<defs>
<font id="icomoon" horiz-adv-x="768" >
<font-face units-per-em="768" ascent="736" descent="-32" />
<missing-glyph horiz-adv-x="768" />
<glyph class="hidden" unicode="&#xf000;" d="M0,736L 768 -32L0 -32 z" horiz-adv-x="0" />
<glyph unicode="&#xe000;" d="M 639.008,736L 128.992,736 C 58.048,736,0,677.952,0,607.008l0-510.016 C0,26.048, 58.048-32, 128.992-32l 510.016,0 
			C 709.952-32, 768,26.048, 768,96.992L 768,607.008 C 768,677.952, 709.952,736, 639.008,736z M 288,128L 192,128 L 192,448 l 96,0 L 288,128 z M 240,480c-35.36,0-64,28.64-64,64s 28.64,64, 64,64
			s 64-28.64, 64-64S 275.36,480, 240,480z M 608,128l-96,0 l0,176 c0,26.528-21.472,48-48,48S 416,330.528, 416,304L 416,128 l-96,0 L 320,448 l 96,0 l0-59.584 
			C 435.808,415.616, 466.048,448, 500,448C 559.616,448, 608,394.24, 608,328L 608,128 z"  />
<glyph unicode="&#xe012;" d="M 575.264,640L 192.736,640 C 139.52,640, 96,596.48, 96,543.264l0-382.496 C 96,107.52, 139.52,64, 192.736,64l 382.496,0 C 628.48,64, 672,107.52, 672,160.736
	L 672,543.264 C 672,596.48, 628.48,640, 575.264,640z M 288,192L 224,192 L 224,448 l 64,0 L 288,192 z M 257.792,464.224c-26.528,0-48,21.504-48,47.968c0,26.528, 21.504,48.032, 48,48.032
	c 26.496,0, 48-21.504, 48-48.032C 305.76,485.728, 284.256,464.224, 257.792,464.224z M 544,192l-64,0 l0,126.688 c0,25.344-21.536,62.304-46.944,62.304
	c-28.448,0-49.056-36.96-49.056-62.304L 384,192 l-64,0 L 320,448 l 64,0 l0-40.384 c 12.928,16.576, 27.968,38.496, 74.112,36.736C 515.008,442.176, 544,385.504, 544,336.448L 544,192 z"  />
<glyph unicode="&#xe001;" d="M 64,672L 704,672L 704,32L 64,32z"  />
<glyph unicode="&#xe002;" d="M 704,349.248c0,18.784-34.944,37.664-34.944,37.664L 123.104,688.16c0,0-33.344,21.6-46.368,14.336
	C 63.136,695.008, 64.032,663.648, 64.032,663.648l0-618.24 c0,0-1.632-33.888, 14.336-42.72c 14.944-8.288, 45.344,5.12, 45.344,5.12l 544.224,303.2
	C 667.936,311.008, 704,330.176, 704,349.248z"  />
<glyph unicode="&#xe003;" d="M 64,672L 256,672L 256,32L 64,32zM 512,672L 704,672L 704,32L 512,32z"  />
<glyph unicode="&#xe004;" d="M 560.032,560L 207.968,560 C 190.336,560, 176,545.664, 176,528.016l0-352.048 C 176,158.336, 190.336,144, 207.968,144l 352.064,0 
	C 577.664,144, 592,158.336, 592,175.968L 592,528.016 C 592,545.664, 577.664,560, 560.032,560z M 544,216.576C 544,203.008, 532.976,192, 519.376,192L 248.592,192 
	C 235.024,192, 224,203.008, 224,216.576L 224,487.392 C 224,500.992, 235.024,512, 248.592,512l 270.784,0 C 532.976,512, 544,500.992, 544,487.392L 544,216.576 zM 320,448L 480,352.016L 320,256 z"  />
<glyph unicode="&#xe005;" d="M 560.032,560L 207.968,560 C 190.336,560, 176,545.664, 176,528.016l0-352.048 C 176,158.336, 190.336,144, 207.968,144l 352.064,0 
		C 577.664,144, 592,158.336, 592,175.968L 592,528.016 C 592,545.664, 577.664,560, 560.032,560z M 544,216.576C 544,203.008, 532.976,192, 519.376,192L 248.592,192 
		C 235.024,192, 224,203.008, 224,216.576L 224,487.392 C 224,500.992, 235.024,512, 248.592,512l 270.784,0 C 532.976,512, 544,500.992, 544,487.392L 544,216.576 zM 272,464L 496,464L 496,416L 272,416zM 272,384L 496,384L 496,336L 272,336zM 272,304L 360.432,304L 360.432,256L 272,256z"  />
<glyph unicode="&#xe006;" d="M 560.032,560L 207.968,560 C 190.336,560, 176,545.664, 176,528.016l0-352.048 C 176,158.336, 190.336,144, 207.968,144l 352.064,0 
		C 577.664,144, 592,158.336, 592,175.968L 592,528.016 C 592,545.664, 577.664,560, 560.032,560z M 544,216.576C 544,203.008, 532.976,192, 519.376,192L 248.592,192 
		C 235.024,192, 224,203.008, 224,216.576L 224,487.392 C 224,500.992, 235.024,512, 248.592,512l 270.784,0 C 532.976,512, 544,500.992, 544,487.392L 544,216.576 zM 331.2,382.784c 2.384,3.744, 6.208,6.896, 11.392,9.424c 5.2,2.528, 12.608,3.792, 22.208,3.792L 345.6,432
		c-14.384,0-25.504-2.432-33.296-7.312c-7.792-4.88-13.504-12.944-17.088-24.192c-3.616-11.248-5.696-26.064-6.304-44.432
		C 288.304,337.68, 288,315.008, 288,288l 76.8,0 l0,72 L 326.4,360 c0,3.184, 0.192,6.848, 0.592,10.976C 327.392,375.088, 328.8,379.024, 331.2,382.784zM 446.4,382.784c 2.384,3.744, 6.192,6.896, 11.392,9.424S 470.4,396, 480,396L 460.8,432
		c-14.384,0-25.504-2.432-33.296-7.312c-7.792-4.88-13.504-12.944-17.088-24.192c-3.616-11.248-5.696-26.064-6.32-44.432
		C 403.504,337.68, 403.2,315.008, 403.2,288L 480,288 l0,72 l-38.4,0 c0,3.184, 0.208,6.848, 0.608,10.976C 442.592,375.088, 444,379.024, 446.4,382.784z"  />
<glyph unicode="&#xe007;" d="M 560.032,560L 207.984,560 C 190.336,560, 176,545.664, 176,528.016l0-352.048 C 176,158.336, 190.336,144, 207.984,144l 352.048,0 
		C 577.664,144, 592,158.336, 592,175.968L 592,528.016 C 592,545.664, 577.664,560, 560.032,560z M 544,216.576C 544,203.008, 532.976,192, 519.376,192L 248.592,192 
		C 235.024,192, 224,203.008, 224,216.576L 224,487.392 C 224,500.992, 235.024,512, 248.592,512l 270.784,0 C 532.976,512, 544,500.992, 544,487.392L 544,216.576 zM 256,480L 320,480L 320,416L 256,416zM 352,480L 416,480L 416,416L 352,416zM 448,480L 512,480L 512,416L 448,416zM 256,384L 320,384L 320,320L 256,320zM 352,384L 416,384L 416,320L 352,320z"  />
<glyph unicode="&#xe008;" d="M 256,384L 320,384L 320,320L 256,320zM 352,384L 416,384L 416,320L 352,320zM 448,384L 512,384L 512,320L 448,320z"  />
<glyph unicode="&#xe009;" d="M 560.032,560L 207.968,560 C 190.336,560, 176,545.664, 176,528.016l0-352.048 C 176,158.336, 190.336,144, 207.968,144l 352.064,0 
	C 577.664,144, 592,158.336, 592,175.968L 592,528.016 C 592,545.664, 577.664,560, 560.032,560z M 544,216.576C 544,203.008, 532.976,192, 519.376,192L 248.592,192 
	C 235.024,192, 224,203.008, 224,216.576L 224,487.392 C 224,500.992, 235.024,512, 248.592,512l 270.784,0 C 532.976,512, 544,500.992, 544,487.392L 544,216.576 zM 461.344,448l-74.688,0 C 376.352,448, 368,440.832, 368,432l0-48 l 32,0 l0,25.136 C 400,412.928, 403.6,416, 408,416l 32,0 
	c 4.416,0, 8-3.072, 8-6.864l0-34.288 C 448,371.072, 444.416,368, 440,368l-10.496,0 L 408,368 L 368,368 l-48,0 l-13.344,0 C 296.352,368, 288,360.832, 288,352l0-80 
	c0-8.848, 8.352-16, 18.656-16l 74.688,0 C 391.648,256, 400,263.152, 400,272l0,48 l-32,0 l0-25.136 C 368,291.056, 364.416,288, 360,288l-32,0 
	c-4.4,0-8,3.056-8,6.864l0,34.288 C 320,332.944, 323.6,336, 328,336L 336,336 l 24,0 L 400,336 l 45.504,0 l 15.84,0 C 471.648,336, 480,343.168, 480,352l0,80 
	C 480,440.832, 471.648,448, 461.344,448z"  />
<glyph unicode="&#xe00a;" d="M 560.032,560L 207.968,560 C 190.336,560, 176,545.664, 176,528.016l0-352.048 C 176,158.336, 190.336,144, 207.968,144l 352.064,0 
	C 577.664,144, 592,158.336, 592,175.968L 592,528.016 C 592,545.664, 577.664,560, 560.032,560z M 544,216.576C 544,203.008, 532.976,192, 519.376,192L 248.592,192 
	C 235.024,192, 224,203.008, 224,216.576L 224,487.392 C 224,500.992, 235.024,512, 248.592,512l 270.784,0 C 532.976,512, 544,500.992, 544,487.392L 544,216.576 zM 496,272L 272,272L 322.624,360L 368.768,328L 424.496,432 z"  />
<glyph unicode="&#xe00b;" d="M 348.496,416.992L 464,456l0-12.992 l0-26 l0-110.496 c0-17.936-16.432-32.496-36.752-32.496
		c-20.304,0-36.752,14.56-36.752,32.496c0,17.968, 16.448,32.512, 36.752,32.512c 5.632,0, 10.992-1.12, 15.744-3.136l0,66.944 l-73.504-24.816l0-97.504 
		c0-17.936-16.448-32.496-36.752-32.496S 296,262.56, 296,280.496s 16.448,32.496, 36.752,32.496c 5.648,0, 10.976-1.12, 15.744-3.104l0,68.112 L 348.496,416.992 zM 560.032,560L 207.968,560 C 190.336,560, 176,545.664, 176,528.016l0-352.048 C 176,158.336, 190.336,144, 207.968,144l 352.064,0 
	C 577.664,144, 592,158.336, 592,175.968L 592,528.016 C 592,545.664, 577.664,560, 560.032,560z M 544,216.576C 544,203.008, 532.976,192, 519.376,192L 248.592,192 
	C 235.024,192, 224,203.008, 224,216.576L 224,487.392 C 224,500.992, 235.024,512, 248.592,512l 270.784,0 C 532.976,512, 544,500.992, 544,487.392L 544,216.576 z"  />
<glyph unicode="&#xe00c;" d="M 584,608L 184,608 C 118.048,608, 64,553.984, 64,488l0-240 C 64,182.016, 118.048,128, 184,128l 400,0 c 65.952,0, 120,54.016, 120,120
	l0,240 C 704,553.984, 649.952,608, 584,608z M 304,234.688L 304,501.312 l 200-133.312L 304,234.688z"  />
<glyph unicode="&#xe00d;" d="M 96,448.64l 23.328-28.576c0,0, 48.352,35.424, 64.384,17.728c 16.096-17.728, 77.408-231.552, 97.984-271.072
	c 17.856-34.592, 67.168-80.288, 121.28-47.648c 54.112,32.672, 233.888,175.68, 266.112,344.64c 32.192,168.736-216.384,133.44-242.688-13.632
	c 65.824,36.736, 100.864-15.008, 67.2-73.568c-33.568-58.56-64.32-96.736-80.384-96.736s-28.448,39.168-46.816,107.648
	c-19.008,70.816-18.848,198.272-97.984,183.84C 193.984,557.632, 96,448.64, 96,448.64z"  />
<glyph unicode="&#xe00e;" d="M 672,520.576c-21.152-9.408-44-15.744-67.808-18.56c 24.288,14.624, 43.072,37.76, 51.84,65.376
	C 633.28,553.824, 608,544, 581.088,538.688C 559.488,561.696, 528.8,576, 494.784,576c-65.28,0-118.176-52.896-118.176-118.176c0-9.248, 1.024-18.24, 3.168-26.912
	C 281.408,435.808, 194.368,482.88, 136.16,554.368c-10.176-17.44-16.096-37.76-16.096-59.392c0-40.992, 20.864-77.184, 52.672-98.368
	c-19.424,0.672-37.664,5.984-53.568,14.816c-0.032-0.544-0.032-1.024-0.032-1.504c0-57.28, 40.672-105.024, 94.784-115.872
	c-9.92-2.752-20.352-4.16-31.040-4.16c-7.712,0-15.136,0.736-22.336,2.144c 15.040-46.976, 58.72-81.152, 110.4-82.048
	c-40.448-31.712-91.36-50.624-146.72-50.624c-9.568,0-18.912,0.576-28.224,1.696c 52.32-33.536, 114.432-53.152, 181.152-53.152
	c 217.376,0, 336.16,180.096, 336.16,336.256c0,5.12-0.096,10.208-0.256,15.296C 636.16,476.096, 656.128,496.864, 672,520.576z"  />
<glyph unicode="&#xe00f;" d="M 411.968,388l0-131.744 c0-33.44-0.448-52.64, 3.136-62.112c 3.616-9.472, 12.64-19.264, 22.304-24.864
	c 13.056-7.68, 27.872-11.424, 44.608-11.424c 29.728,0, 47.264,3.808, 76.544,22.784l0-86.592 l0,0c-24.928-11.552-46.816-18.304-67.136-23.072
	C 471.040,66.336, 449.088,64, 425.472,64c-26.816,0-42.688,3.296-63.296,9.952c-20.672,6.656-38.208,16.16-52.736,28.48
	c-14.56,12.32-24.576,25.344-30.304,39.232c-5.632,13.888-8.384,33.984-8.384,60.352l0,201.984 L 192,404 L 192,485.504 c 23.072,7.36, 48.8,17.952, 65.184,31.616
	c 16.576,13.696, 29.632,30.208, 39.616,49.472C 306.752,585.76, 313.632,610.304, 317.312,640l 94.656,0 l0-143.936 l 146.56,0 l0-108.064 L 411.968,388 z"  />
<glyph unicode="&#xe010;" d="M 654.144,149.856l-136.48,116.064c-14.080,12.672-29.184,18.496-41.344,17.952c 32.224,37.728, 51.648,86.656, 51.648,140.16
	C 528,543.328, 431.328,640, 312,640S 96,543.328, 96,424s 96.672-216, 216-216c 53.504,0, 102.432,19.456, 140.16,51.648
	c-0.576-12.192, 5.28-27.296, 17.952-41.408l 116.096-136.384c 19.84-22.048, 52.32-23.936, 72.096-4.16C 678.080,97.536, 676.224,129.952, 654.144,149.856z
	 M 312,280c-79.552,0-144,64.512-144,144c0,79.52, 64.448,144, 144,144s 144-64.48, 144-144C 456,344.512, 391.552,280, 312,280z"  />
<glyph unicode="&#xe011;" d="M 172.704,217.696C 130.4,217.696, 96,183.104, 96,141.12c0-42.304, 34.4-76.448, 76.704-76.448
	c 42.368,0, 76.672,34.112, 76.672,76.448C 249.408,183.104, 215.136,217.696, 172.704,217.696z M 96.096,444.32l0-110.4 c 71.84,0, 139.488-28.128, 190.336-79.040
	c 50.88-50.784, 78.912-118.72, 78.912-190.88l 110.944,0 C 476.288,273.728, 305.632,444.32, 96.096,444.32z M 96.256,640l0-110.432 
	c 256.384,0, 464.992-208.864, 464.992-465.568L 672,64 C 672,381.568, 413.632,640, 96.256,640z"  />
<glyph unicode="&#xe013;" d="M 384,672C 207.296,672, 64,528.704, 64,352c0-176.672, 143.296-320, 320-320s 320,143.328, 320,320C 704,528.704, 560.704,672, 384,672z M 415.104,244.416
	c-29.12,2.272-41.312,16.704-64.096,30.528c-12.576-65.76-27.84-128.736-73.248-161.696c-13.984,99.36, 20.576,173.952, 36.672,253.216
	c-27.424,46.016, 3.232,138.784, 60.96,115.904c 71.008-28.064-61.536-171.264, 27.456-189.12c 92.864-18.688, 130.752,161.12, 73.184,219.616
	c-83.232,84.448-242.176,1.952-222.688-118.976c 4.8-29.568, 35.264-38.528, 12.192-79.296c-53.248,11.776-69.152,53.824-67.104,109.76
	c 3.264,91.68, 82.368,155.904, 161.664,164.736c 100.32,11.2, 194.464-36.8, 207.488-131.136C 582.176,351.488, 522.272,236.128, 415.104,244.416z"  />
<glyph unicode="&#xe014;" d="M 576.384,640L 191.616,640 C 139.040,640, 96,596.928, 96,544.384l0-384.736 C 96,107.072, 139.040,64, 191.616,64l 384.736,0 
	C 628.96,64, 672,107.072, 672,159.616L 672,544.384 C 672,596.928, 628.96,640, 576.384,640z M 280.352,388l 207.296,0 c 3.936-11.328, 6.048-23.36, 6.048-36
	c0-60.448-49.216-109.696-109.696-109.696S 274.304,291.552, 274.304,352C 274.304,364.64, 276.448,376.672, 280.352,388z M 600,387.968l0-143.968 l0-72 
	c0-19.84-16.192-36-36-36L 204,136 c-19.84,0-36,16.16-36,36l0,72 l0,143.968 l0,0.032 l 56.32,0 
	C 221.696,376.448, 220.32,364.384, 220.32,352c0-90.24, 73.44-163.68, 163.68-163.68S 547.68,261.76, 547.68,352c0,12.384-1.376,24.448-4,36
	L 600,387.968L 600,387.968z M 600,513.984c0-9.888-8.096-17.984-17.984-17.984l-36,0 c-9.92,0-17.984,8.128-17.984,17.984L 528.032,550.016 
	c0,9.888, 8.096,17.984, 17.984,17.984l 36,0 c 9.92,0, 17.984-8.128, 17.984-17.984L 600,513.984 z"  />
<glyph unicode="&#xe015;" d="M 96.448,150.816c-0.128,1.408-0.256,2.848-0.288,4.32C 96.192,153.664, 96.32,152.224, 96.448,150.816z M 228.672,322.048
	c 51.744-1.504, 86.496,52.192, 77.536,119.968C 297.312,509.824, 248.064,564.192, 196.32,565.76C 144.576,567.296, 109.888,515.392, 118.784,447.616
	S 176.896,323.648, 228.672,322.048z M 672,512L 672,543.968 C 672,596.8, 628.832,640, 576,640L 192.032,640 C 140.096,640, 97.536,598.208, 96.064,546.688
	C 128.864,575.552, 174.432,599.68, 221.44,599.68c 50.208,0, 200.96,0, 200.96,0l-44.992-38.016L 313.696,561.664 c 42.304-16.16, 64.8-65.28, 64.8-115.68
	c0-42.336-23.552-78.72-56.768-104.608c-32.416-25.248-38.56-35.872-38.56-57.312c0-18.304, 34.72-49.504, 52.864-62.336
	c 53.12-37.408, 70.272-72.16, 70.272-130.176c0-9.216-1.12-18.432-3.392-27.52L 576,64.032 c 52.832,0, 96,43.168, 96,96.032L 672,480 l-96,0 l0-96 l-32,0 L 544,480 l-96,0 L 448,512 l 96,0 L 544,604 l 32,0 L 576,512 L 672,512 z
	 M 200.576,209.184c 12.16,0, 23.296,0.32, 34.816,0.32c-15.232,14.816-27.328,32.928-27.328,55.328c0,13.28, 4.224,26.016, 10.176,37.408
	c-6.048-0.448-12.256-0.576-18.624-0.576c-41.888,0-77.344,13.568-103.616,35.904l0-37.792 l0-113.504 C 126.048,200.576, 161.76,209.184, 200.576,209.184z
	 M 97.92,140.896c-0.64,3.104-1.088,6.176-1.408,9.344C 96.8,147.104, 97.28,144, 97.92,140.896z M 352.192,104.064
	c-8.512,33.024-38.496,49.44-80.384,78.464c-15.232,4.896-32,7.808-49.984,7.968C 171.392,191.072, 124.448,170.88, 97.952,140.8
	C 106.88,97.056, 145.76,64, 192.032,64l 161.12,0 c 0.992,6.272, 1.472,12.736, 1.472,19.36C 354.624,90.432, 353.792,97.312, 352.192,104.064z"  />
<glyph unicode="&#xe016;" d="M 64,340c0-29.056, 2.688-55.264, 8.128-78.752c 5.44-23.456, 12.928-43.776, 22.56-61.152
	c 9.568-17.312, 21.792-32.608, 36.64-45.728c 14.752-13.12, 30.848-23.84, 48.128-32.224c 17.344-8.32, 37.12-15.072, 59.36-20.32
	c 22.24-5.28, 44.896-8.864, 68.032-10.944c 23.168-2.144, 48.608-3.136, 76.32-3.136c 28,0, 53.536,0.96, 76.672,3.136
	c 23.2,2.048, 45.92,5.664, 68.256,10.944c 22.304,5.216, 42.176,12, 59.616,20.32c 17.376,8.384, 33.568,19.104, 48.512,32.224
	c 14.912,13.12, 27.264,28.416, 36.928,45.728c 9.696,17.376, 17.248,37.696, 22.688,61.152C 701.312,284.736, 704,310.944, 704,340
	c0,51.744-17.312,96.544-51.968,134.272c 1.92,4.992, 3.648,10.688, 5.216,17.024c 1.568,6.368, 3.008,15.488, 4.384,27.264
	C 662.944,530.304, 662.432,544, 660.064,559.424c-2.432,15.424-6.88,31.2-13.344,47.264l-4.704,0.928c-3.328,0.64-8.8,0.512-16.384-0.448
	c-7.648-0.928-16.512-2.848-26.624-5.664s-23.168-8.288-39.136-16.288c-15.968-8.064-32.8-18.080-50.528-30.176
	c-30.464,8.352-72.32,12.512-125.536,12.512c-52.96,0-94.688-4.16-125.152-12.512C 240.928,567.168, 223.968,577.184, 207.808,585.248
	C 191.648,593.248, 178.752,598.72, 169.152,601.536s-18.56,4.64-26.88,5.472C 133.888,607.808, 128.608,608.128, 126.432,607.808S 122.56,607.136, 121.28,606.688
	C 114.784,590.624, 110.4,574.88, 107.968,559.424C 105.568,544, 105.088,530.304, 106.4,518.56c 1.376-11.744, 2.816-20.864, 4.384-27.264
	C 112.32,484.96, 114.080,479.296, 115.968,474.272C 81.344,436.544, 64,391.744, 64,340z M 142.592,261.472c0,30.048, 13.632,57.6, 40.96,82.592
	c 8.128,7.488, 17.632,13.184, 28.48,17.088c 10.88,3.84, 23.072,6.016, 36.8,6.56c 13.664,0.512, 26.752,0.416, 39.264-0.32
	c 12.512-0.736, 28-1.792, 46.336-3.040s 34.176-1.888, 47.52-1.888c 13.376,0, 29.248,0.64, 47.552,1.888c 18.432,1.248, 33.824,2.272, 46.336,3.040
	c 12.544,0.704, 25.6,0.8, 39.296,0.32c 13.696-0.544, 25.952-2.72, 36.8-6.56c 10.816-3.904, 20.32-9.6, 28.512-17.088
	c 27.264-24.64, 40.928-52.192, 40.928-82.592c0-17.984-2.176-33.888-6.72-47.744s-10.208-25.504-17.216-34.912c-7.008-9.44-16.736-17.344-29.12-23.904
	s-24.512-11.648-36.32-15.264c-11.744-3.488-26.944-6.24-45.312-8.256c-18.496-2.016-35.008-3.2-49.472-3.616
	c-14.528-0.384-32.928-0.64-55.296-0.64c-22.304,0-40.704,0.256-55.232,0.64c-14.464,0.448-31.008,1.6-49.376,3.616
	c-18.496,1.984-33.632,4.736-45.376,8.256c-11.84,3.584-23.936,8.672-36.32,15.264c-12.416,6.56-22.112,14.464-29.12,23.904
	c-7.040,9.408-12.704,21.024-17.216,34.912S 142.592,243.456, 142.592,261.472z M 464,267.776c0-33.12, 17.952-60, 40-60S 544,234.656, 544,267.776
	s-17.952,60-40,60S 464,300.896, 464,267.776z M 224,267.776c0-33.12, 17.92-60, 40-60s 40,26.88, 40,60
	s-17.92,60-40,60S 224,300.896, 224,267.776z"  />
<glyph unicode="&#xe017;" d="M 331.616,96L 96,96 l 288,576l 288-576l-235.616,0 l0,78.56 l 78.56,0 l0,52.384 l-78.56,0 L 436.384,288 l-104.736,0 L 331.648,96 z M 331.616,96l 104.736,0 l0-64 l-104.736,0 L 331.616,96 z"  />
<glyph unicode="&#xe018;" d="M 336.032,360.032c0-66.304-53.728-120.064-120.064-120.064c-66.24,0-119.968,53.76-119.968,120.064C 96,426.24, 149.728,480, 215.968,480
		C 282.304,480, 336.032,426.24, 336.032,360.032zM 552.032,480c-66.336,0-120.064-53.76-120.064-119.968c0-66.304, 53.728-120.064, 120.064-120.064c 66.24,0, 119.968,53.76, 119.968,120.064
		C 672,426.24, 618.272,480, 552.032,480z M 552.032,286.336c-39.776,0-72,32.64-72,72.832s 32.224,72.832, 72,72.832c 39.712,0, 72-32.64, 72-72.832
		S 591.744,286.336, 552.032,286.336z"  />
<glyph unicode="&#xe019;" d="M 512,352l-96,0 l0-352 L 288,0 L 288,352 L 224,352 L 224,480 l 64,0 L 288,533.312 C 288,630.304, 329.856,704, 443.904,704L 544,704 l0-128 l-76.032,0 C 436.096,576.064, 416,552.48, 416,521.44L 416,480 l 96,0 
			L 512,352 z"  />
<glyph unicode="&#xe01a;" d="M 384,32C 207.616,32, 64,175.616, 64,352S 207.616,672, 384,672s 320-143.616, 320-320S 560.384,32, 384,32z M 384,620.8
			c-148.224,0-268.8-120.576-268.8-268.8s 120.576-268.8, 268.8-268.8c 148.256,0, 268.8,120.576, 268.8,268.8S 532.256,620.8, 384,620.8zM 89.6,347.008l0,51.2 c 1.536,0, 156.416,0.512, 264,34.816c 121.152,38.688, 225.472,138.464, 226.528,139.488l 35.616-36.864
			c-4.64-4.384-113.76-108.992-246.624-151.36C 253.952,347.488, 96.288,347.008, 89.6,347.008zM 204.256,122.432l-42.272,28.8c 4.224,6.24, 105.632,153.152, 233.952,194.368c 117.312,37.536, 279.552,2.112, 286.432,0.64
			l-11.136-49.984c-1.568,0.32-155.68,33.888-259.68,0.64C 300.128,261.056, 205.216,123.744, 204.256,122.432zM 500.16,75.264c-0.416,1.888-36.896,180-93.248,296.448C 356.896,475.168, 262.176,612.384, 261.216,613.76l 42.080,29.12
			c 3.968-5.76, 97.952-141.824, 149.696-248.864c 59.2-122.368, 95.872-300.928, 97.376-308.512L 500.16,75.264z"  />
<glyph unicode="&#xe01b;" d="M 384.032,310.816c 64.128,0, 122.304-27.552, 164.512-72.384l-54.784-58.112c-28.256,29.728-66.976,48.288-109.728,48.288
			c-42.848,0-81.568-18.56-109.76-48.288l-54.816,58.112C 261.664,283.264, 319.904,310.816, 384.032,310.816z M 109.728,354.848
			c 73.248,77.824, 170.688,120.512, 274.304,120.512c 103.648,0, 201.024-42.688, 274.208-120.512l-54.848-58.112l0,0c-58.528,62.176-136.512,96.416-219.36,96.416
			c-82.912,0-160.864-34.208-219.424-96.416L 109.728,354.848z M 595.392,594.784c 64.64-29.12, 122.72-70.624, 172.608-123.552l0,0l-54.848-58.144
			C 625.184,506.432, 508.416,557.76, 384.032,557.76c-124.32,0-241.184-51.328-329.184-144.672L0,471.232C 49.92,524.16, 107.936,565.664, 172.64,594.784
			C 239.584,624.736, 310.752,640, 384.032,640C 457.216,640, 528.416,624.736, 595.392,594.784z M 345.248,105.184c0-22.752, 17.344-41.184, 38.784-41.184
			c 21.376,0, 38.752,18.432, 38.752,41.184c0,22.656-17.376,41.12-38.752,41.12C 362.592,146.304, 345.248,127.84, 345.248,105.184z"  />
<glyph unicode="&#xe01c;" d="M 149.984,15.008c-19.616-20-51.552-20-71.264,0c-19.616,20.032-19.616,52.448,0,72.512
				C 98.4,107.52, 221.152,160, 221.152,160S 169.664,35.040, 149.984,15.008z M 359.52,15.008c-19.616-20-51.424-20-71.232,0
				c-19.584,20.032-19.584,52.448,0,72.512C 308.096,107.52, 430.752,160, 430.752,160S 379.296,35.040, 359.52,15.008z M 568.832,15.008
				c-19.616-20-51.456-20-71.168,0c-19.68,20.032-19.68,52.448,0,72.512C 517.376,107.52, 640,160, 640,160S 588.448,35.040, 568.832,15.008zM 576,601.6c-9.088,0-17.728-1.536-26.432-2.848C 516.096,661.888, 454.208,704, 384,704C 312.288,704, 250.4,661.344, 217.408,599.072
				C 208.96,600.256, 200.544,601.6, 192,601.6c-105.856,0-192-91.84-192-204.768C0,283.808, 86.144,192, 192,192l 384,0 c 105.856,0, 192,91.808, 192,204.8
				C 768,509.76, 681.856,601.6, 576,601.6z M 576,288L 192,288 c-52.96,0-96,52.416-96,108.8c0,56.128, 46.592,99.424, 96.096,100.992
				C 192.288,473.664, 196.224,449.952, 204.096,427.52l 89.92,35.904C 289.984,474.816, 288,486.88, 288,499.2c0,56.48, 43.040,102.4, 96,102.4
				c 31.040,0, 59.168-16.416, 76.768-41.952C 414.464,522.24, 384,463.488, 384,396.8l 96,0 C 480,453.248, 523.040,499.2, 576,499.2s 96-45.952, 96-102.368
				C 672,340.416, 628.96,288, 576,288z"  />
<glyph unicode="&#xe01d;" d="M 576,505.6c-9.088,0-17.728-1.536-26.432-2.848C 516.096,565.888, 454.208,608, 384,608C 312.288,608, 250.4,565.344, 217.408,503.072
			C 208.96,504.256, 200.544,505.6, 192,505.6c-105.856,0-192-91.84-192-204.768C0,187.808, 86.144,96, 192,96l 384,0 c 105.856,0, 192,91.808, 192,204.8
			C 768,413.76, 681.856,505.6, 576,505.6z M 576,192L 192,192 c-52.96,0-96,52.416-96,108.8c0,56.128, 46.592,99.424, 96.096,100.992
			c 0.192-24.16, 4.128-47.872, 12-70.272l 89.92,35.904C 289.984,378.816, 288,390.88, 288,403.2c0,56.48, 43.040,102.4, 96,102.4
			c 31.040,0, 59.168-16.416, 76.768-41.952C 414.464,426.24, 384,367.488, 384,300.8l 96,0 c0,56.448, 43.040,102.368, 96,102.368s 96-45.952, 96-102.368
			C 672,244.416, 628.96,192, 576,192z"  />
<glyph unicode="&#xe01e;" d="M 703.936,260.736c0,0.64,0,0.992,0,1.696c-0.032,1.056-0.064,2.112-0.064,3.072
			C 695.424,502.304, 384.064,736, 384.064,736S 72.64,502.304, 64.32,265.504c0-0.928-0.064-1.984-0.064-3.072c0-0.672-0.032-1.056-0.064-1.696
			C 64.128,259.008, 64,257.568, 64,255.936c0-1.824, 0.128-3.552, 0.192-5.312c0-0.192,0-0.384, 0.032-0.448C 67.424,93.76, 209.376-32, 384.064-32
			c 174.56,0, 316.512,125.76, 319.872,282.176c0,0.064,0,0.256,0,0.448C 703.968,252.384, 704,254.112, 704,256C 704,257.568, 703.968,259.008, 703.936,260.736z
			 M 597.28,252.384l0-0.32 c-1.056-50.432-23.68-97.76-63.808-133.184c-40.16-35.424-93.248-55.072-149.408-55.072
			c-10.496,0-20.736,0.8-30.784,2.048c 115.808,62.24, 193.504,176.128, 193.504,306.304c0,14.688-0.992,29.056-2.912,43.072
			c 33.536-55.328, 51.68-107.136, 53.248-152.64l0-0.128 c 0.032-0.736, 0.128-1.632, 0.128-2.304l 0.032-1.056c0-0.992,0-2.048,0-3.136
			C 597.28,254.816, 597.28,253.632, 597.28,252.384z"  />
<glyph unicode="&#xe01f;" d="M 541.568,639.648c-4.512,0-8.864-0.512-13.312-0.832l0-41.792 c 103.008,0, 186.464-109.728, 186.464-245.024
				c0-135.36-83.456-245.024-186.464-245.024l0-41.824 c 4.448-0.352, 8.8-0.8, 13.312-0.8C 666.656,64.352, 768,193.12, 768,352
				S 666.656,639.648, 541.568,639.648z M 648.128,352c0,83.616-50.816,153.472-119.808,175.328l0-57.632 c 35.328-20.992, 59.904-65.568, 59.904-117.664
				c0-52.128-24.608-96.672-59.904-117.728l0-57.568 C 597.312,198.528, 648.128,268.352, 648.128,352zM 411.936-32c-11.36,0-30.080,13.12-40.256,24.032l-232.32,216l-116.16,0 C 10.432,208.032,0,218.784,0,232.032l0,192 
				c0,13.216, 10.432,24, 23.232,24l 116.16,0 l 232.32,263.968C 388.832,730.368, 399.008,736, 411.584,736C 436.352,736, 448,718.496, 448,699.008l0-684 
				C 448-10.688, 437.184-32, 411.936-32z"  />
<glyph unicode="&#xe020;" d="M 571.936-32c-11.36,0-30.080,13.12-40.256,24.032l-232.32,216l-116.16,0 C 170.432,208.032, 160,218.784, 160,232.032l0,192 
			c0,13.216, 10.432,24, 23.232,24l 116.16,0 l 232.32,263.968C 548.832,730.368, 559.008,736, 571.584,736C 596.352,736, 608,718.496, 608,699.008l0-684 
			C 608-10.688, 597.184-32, 571.936-32z"  />
<glyph unicode="&#xe021;" d="M 401.696,219.104c-18.4,3.104-18.848,54.816-18.848,54.816s 54.144,54.976, 65.952,128.512
				c 31.744,0, 51.328,78.336, 19.584,105.824C 469.728,537.312, 509.216,736, 309.344,736C 109.504,736, 148.96,537.312, 150.272,508.224
				c-31.712-27.456-12.128-105.824, 19.552-105.824c 11.84-73.536, 65.984-128.512, 65.984-128.512s-0.48-51.712-18.848-54.816C 157.664,209.568,0,77.568,0-32
				l 618.688,0 C 618.688,77.568, 461.088,209.568, 401.696,219.104zM 550.656,288.128c0,0, 33.728,53.088, 45.472,126.656c 34.496,12.704, 46.496,100.64, 13.312,107.68
		c 1.28,28.864-6.624,139.52-95.232,175.84c-15.040,6.176-23.84,9.248-29.76,8.096c 50.24-33.984, 59.488-143.616, 41.152-178.912
		c 31.712-27.552, 21.024-110.048-10.752-110.048c 9.184-42.144-55.744-145.824-55.744-145.824s 4.992-23.136, 15.84-25.088
		c 51.040-8.672, 215.136-153.44, 211.488-278.528L 768-32 c0,59.328-50.208,156.352-108.672,225.44C 609.888,251.936, 550.656,288.128, 550.656,288.128z"  />
<glyph unicode="&#xe022;" d="M 478.976,196.672c-18.88,3.168-19.328,57.184-19.328,57.184s 55.648,57.216, 67.84,134.048
			c 32.64,0, 52.736,81.696, 20.16,110.464C 548.96,528.64, 589.6,736, 384,736S 219.040,528.64, 220.416,498.368c-32.64-28.736-12.48-110.464, 20.128-110.464
			c 12.16-76.832, 67.872-134.048, 67.872-134.048s-0.512-54.016-19.36-57.184C 227.936,186.624,0,82.368,0-32l 384,0 l 384,0 
			C 768,82.368, 540.064,186.624, 478.976,196.672z"  />
<glyph unicode="&#xe023;" d="M 385.984,544c 18.56,0, 37.024-20.896, 37.024-20.896l 271.36-300.928c0,0, 17.312-19.808, 5.44-45.152
	c-8.064-16.992-33.888-16.928-33.888-16.928L 104.64,160.096 c0,0-31.264-2.56-39.264,21.472c-7.264,21.856, 16.384,47.904, 16.384,47.904l 266.496,292.832
	C 348.256,522.272, 367.264,544, 385.984,544z"  />
<glyph unicode="&#xe024;" d="M 576,428.768L 384,736L 192,428.768l 144,0 c0-168.832,0-237.92,0-406.72c0-72.096, 96-72.096, 96,0c0,168.8,0,237.888,0,406.72L 576,428.768 z"  />
<glyph unicode="&#xe025;" d="M 420.288,624L 384,736l-36.288-112C 188.32,605.408, 64,465.984, 64,297.152l 80,0 c0,16.992, 13.504,30.848, 30.016,30.848
	c 16.576,0, 30.016-13.856, 30.016-30.848l 80.032,0 c0,16.992, 13.472,30.848, 29.984,30.848c 16.576,0, 30.016-13.856, 30.016-30.848l0-205.728 
	c0-22.688-17.92-41.152-40-41.152c-22.016,0-40,18.464-40,41.152L 184,91.424 C 184,23.36, 237.92-32, 304.032-32c 66.24,0, 120,55.36, 120,123.424
	l0,205.728 c0,16.992, 13.504,30.848, 29.984,30.848c 16.576,0, 29.984-13.856, 29.984-30.848l 80.032,0 c0,16.992, 13.568,30.848, 30.016,30.848
	c 16.576,0, 30.016-13.856, 30.016-30.848L 704,297.152 C 704,466.016, 579.808,605.408, 420.288,624z"  />
<glyph unicode="&#xe026;" d="M 736,608l-189.536,0 l-27.072,100.672c0,0-3.392,17.344-19.712,24.192C 492.224,736, 460.832,735.968, 460.832,735.968L 308.64,735.968 
		c0,0-24.48,0.576-36.032-3.584c-18.272-6.56-24-25.792-24-25.792L 221.536,608L 32,608 l0-96 l 64,0 l0-447.456 C 96,8.832, 130.752-32, 184.384-32L 585.28-32 
		c 59.2,0, 86.72,48.48, 86.72,104.16L 672,512 l 64,0 L 736,608 z M 316.32,672l 135.36,0 l 13.568-64L 302.752,608 L 316.32,672z M 576,96c0-26.784-6.752-32-25.12-32L 221.504,64 
		C 203.52,64, 192,60.416, 192,91.936L 192,512 l 384,0 L 576,96 zM 256,448L 320,448L 320,128L 256,128zM 352,448L 416,448L 416,128L 352,128zM 448,448L 512,448L 512,128L 448,128z"  />
<glyph unicode="&#xe027;" d="M 763.040,329.12c 5.984-39.616, 9.952-93.856-8.704-114.624c-30.88-34.24-226.304-34.24-226.304,34.304
			c0,34.624, 32.128,57.248, 1.312,91.552c-30.368,33.792-84.8,34.368-145.344,34.368c-60.512,0-114.912-0.608-145.28-34.368
			c-30.848-34.304, 1.28-56.928, 1.28-91.552c0-68.576-195.424-68.576-226.304-34.304c-18.656,20.768-14.688,75.008-8.736,114.624
			c 4.608,26.496, 16.288,55.040, 53.664,91.424l0,0c 56.032,49.824, 140.896,90.496, 322.4,91.392L 381.024,512 c 0.96,0, 1.984-0.032, 2.976-0.032
			C 384.992,511.968, 385.984,512, 386.976,512l0-0.032 c 181.504-0.896, 266.336-41.6, 322.4-91.392l0,0C 746.752,384.16, 758.4,355.616, 763.040,329.12z"  />
<glyph unicode="&#xe028;" d="M 695.872,736l-216.448,0 c-39.68,0-95.072-22.944-123.136-51.040L 21.056,349.76c-28.064-28.064-28.064-73.984,0-102.016
			l 258.752-258.72c 28-28.032, 73.888-28.032, 102.016,0l 335.2,335.264C 745.056,352.352, 768,407.776, 768,447.424L 768,663.84 C 768,703.552, 735.552,736, 695.872,736z
			 M 600,496c-39.744,0-72,32.256-72,72S 560.256,640, 600,640s 72.064-32.256, 72.064-72S 639.744,496, 600,496z"  />
<glyph unicode="&#xe029;" d="M 384.032,448c 52.864,0, 96-43.072, 96-96s-43.136-96-96-96s-96,43.072-96,96S 331.168,448, 384.032,448 M 384.032,544
			c-106.016,0-192-85.984-192-192s 85.984-192, 192-192S 576,245.984, 576,352S 490.048,544, 384.032,544L 384.032,544z M 336,688C 336,661.504, 357.504,640, 384,640
			s 48,21.504, 48,48S 410.496,736, 384,736S 336,714.496, 336,688z M 96,592C 96,565.504, 117.504,544, 144,544S 192,565.504, 192,592S 170.496,640, 144,640S 96,618.496, 96,592z
			 M 48,400C 74.528,400, 96,378.528, 96,352c0-26.56-21.472-48-48-48S0,325.44,0,352C0,378.528, 21.472,400, 48,400z M 96,112
			C 96,85.504, 117.504,64, 144,64S 192,85.504, 192,112S 170.496,160, 144,160S 96,138.496, 96,112z M 336,16c0,26.624, 21.472,48, 48,48
			c 26.56,0, 48-21.376, 48-48c0-26.432-21.44-48-48-48C 357.472-32, 336-10.432, 336,16z M 576,112c0-26.496, 21.504-48, 48-48
			s 48,21.504, 48,48S 650.496,160, 624,160S 576,138.496, 576,112z M 720,304c-26.496,0-48,21.504-48,48c0,26.56, 21.504,48, 48,48
			S 768,378.56, 768,352C 768,325.504, 746.496,304, 720,304z M 576,592C 576,565.504, 597.504,544, 624,544S 672,565.504, 672,592S 650.496,640, 624,640
			S 576,618.496, 576,592z"  />
<glyph unicode="&#xe02a;" d="M 384.032,544c-106.048,0-192-85.952-192-192s 85.952-192, 192-192C 490.048,160, 576,245.952, 576,352S 490.048,544, 384.032,544L 384.032,544z
			 M 336,688C 336,661.504, 357.472,640, 384,640s 48,21.504, 48,48S 410.528,736, 384,736S 336,714.496, 336,688z M 96,592C 96,565.472, 117.472,544, 144,544
			S 192,565.472, 192,592S 170.528,640, 144,640S 96,618.528, 96,592z M 48,400C 74.56,400, 96,378.56, 96,352c0-26.592-21.44-48-48-48S0,325.408,0,352
			C0,378.56, 21.44,400, 48,400z M 96,112C 96,85.472, 117.472,64, 144,64S 192,85.472, 192,112S 170.528,160, 144,160S 96,138.528, 96,112z M 336,16
			c0,26.624, 21.44,48, 48,48c 26.592,0, 48-21.376, 48-48c0-26.496-21.408-48-48-48C 357.44-32, 336-10.496, 336,16z M 576,112
			c0-26.528, 21.472-48, 48-48s 48,21.472, 48,48S 650.528,160, 624,160S 576,138.528, 576,112z M 720,304c-26.528,0-48,21.472-48,48
			c0,26.592, 21.472,48, 48,48S 768,378.592, 768,352C 768,325.472, 746.528,304, 720,304z M 576,592C 576,565.472, 597.472,544, 624,544S 672,565.472, 672,592
			S 650.528,640, 624,640S 576,618.528, 576,592z"  />
<glyph unicode="&#xe02b;" d="M 625.728-32l-241.28,185.376l-241.632-185.184l 93.472,299.072L0,448.928l 288.384,0 L 384.16,736l 95.68-287.072L 768,448.928 l-235.712-182.24
				L 625.728-32z M 125.92,406.112l 160.128-123.136l-62.080-198.688l 160.512,123.008l 159.968-122.88l-61.952,197.952l 160.16,123.744L 448.96,406.112 L 384.16,600.64
				l-64.896-194.496L 125.92,406.144 z"  />
<glyph unicode="&#xe02c;" d="M 531.36,264.992L 768,448l-287.968,0 l-96,288l-96-288L0,448 l 237.024-182.176L 143.968-32l 240.448,184.32L 624.224-32L 531.36,264.992z"  />
<glyph unicode="&#xe02d;" d="M 624.128,474.88C 472,582.752, 419.584,669.12, 384,736l0,0l0,0l0,0c-35.616-66.88-88-153.248-240.128-261.12
			c-259.264-183.968-15.136-440.736, 199.392-299.424c-13.984-87.68-61.664-151.552-110.144-179.168L 233.12-32 L 384-32 l 150.88,0 l0,28.288 
			c-48.48,27.552-96.192,91.456-110.144,179.168C 639.328,34.112, 883.36,290.912, 624.128,474.88z"  />
<glyph unicode="&#xe02e;" d="M 452.992,352L 243.008,352 C 228.064,352, 224,335.488, 224,320l0-132 C 224,172.512, 228.064,160, 243.008,160L 448,160 c 14.944,0, 32,12.512, 32,28L 480,320 
		C 480,335.488, 467.936,352, 452.992,352zM 640,736L 128,736 C 57.632,736,0,678.368,0,608l0-512 c0-70.432, 57.632-128, 128-128l 512,0 c 70.368,0, 128,57.568, 128,128L 768,608 C 768,678.368, 710.368,736, 640,736z
		 M 608,128c0-18.4-20.288-32-35.424-32L 195.424,96 C 180.288,96, 160,124.256, 160,142.656l0,248.032 C 160,409.088, 180.288,416, 195.424,416l 138.784,0 
		C 296.768,453.408, 262.912,514.24, 280.64,529.056c 12.928,10.88, 72.864-32.32, 106.624-75.232c 47.104,75.424, 163.744,198.432, 184.064,176.544
		c 13.376-14.368-77.696-155.872-143.68-214.368l 144.928,0 C 587.712,416, 608,402.4, 608,384L 608,128 z"  />
<glyph unicode="&#xe02f;" d="M 389.056,327.456l 88.512-236.224c 0.608-1.376, 1.312-2.624, 2.048-3.872c-29.92-10.24-62.112-15.872-95.616-15.872
			c-28.256,0-55.552,4.064-81.376,11.424L 389.056,327.456z M 672,352c0-103.424-57.568-193.824-143.2-242.432l 87.936,247.68
			c 16.448,40.032, 21.952,72.032, 21.952,100.48c0,10.336-0.704,19.936-1.984,28.832C 659.2,446.624, 672,400.768, 672,352z M 96,352
			c0,40.672, 8.928,79.264, 24.928,114.144l 137.376-366.592C 162.24,145.024, 96,240.96, 96,352z M 143.36,506.048C 194.88,582.176, 283.392,632.512, 384,632.512
			c 74.976,0, 143.264-27.904, 194.496-73.632c-1.248,0.064-2.464,0.192-3.744,0.192c-28.288,0-48.352-24-48.352-49.792
			c0-23.104, 13.696-42.656, 28.288-65.792c 10.944-18.656, 23.744-42.656, 23.744-77.344c0-24-9.504-51.872-21.952-90.656l-28.704-93.504L 423.68,483.52
			c 17.344,0.864, 32.96,2.656, 32.96,2.656c 15.52,1.792, 13.696,24-1.856,23.104c0,0-46.656-3.52-76.736-3.52
			c-28.32,0-75.872,3.52-75.872,3.52C 286.688,510.176, 284.864,487.072, 300.384,486.176c0,0, 14.688-1.792, 30.176-2.656l 44.896-119.744l-63.040-184.096
			L 207.552,483.52c 17.344,0.864, 32.928,2.656, 32.928,2.656C 256,487.968, 254.176,510.176, 238.624,509.28c0,0-46.592-3.52-76.704-3.52
			C 156.512,505.76, 150.112,505.888, 143.36,506.048z M 639.008,736L 128.992,736 C 58.048,736,0,677.952,0,607.008l0-510.016 C0,26.048, 58.048-32, 128.992-32l 510.016,0 
			C 709.952-32, 768,26.048, 768,96.992L 768,607.008 C 768,677.952, 709.952,736, 639.008,736z M 720,352c0-185.568-150.432-336-336-336S 48,166.432, 48,352
			S 198.432,688, 384,688S 720,537.568, 720,352z"  />
<glyph unicode="&#xe030;" d="M 640,736L 128,736 C 57.632,736,0,678.368,0,608l0-512 c0-70.432, 57.632-128, 128-128l 512,0 c 70.368,0, 128,57.568, 128,128L 768,608 C 768,678.368, 710.368,736, 640,736z
			 M 609.664,439.392c-25.472-143.456-167.776-264.96-210.592-292.704s-81.888,11.136-96,40.512c-16.224,33.536-64.8,215.2-77.568,230.24
			c-12.672,15.008-50.88-15.072-50.88-15.072l-18.528,24.32c0,0, 77.536,92.576, 136.544,104.16c 62.56,12.256, 62.464-96.064, 77.504-156.192
			c 14.528-58.208, 24.32-91.456, 37.024-91.456s 37.024,32.448, 63.648,82.144c 26.688,49.792-1.184,93.792-53.248,62.464
			C 438.432,552.8, 635.136,582.88, 609.664,439.392z"  />
<glyph unicode="&#xe031;" d="M 640,736L 128,736 C 57.6,736,0,678.368,0,608l0-512 c0-70.432, 57.6-128, 128-128l 512,0 c 70.432,0, 128,57.568, 128,128L 768,608 C 768,678.368, 710.432,736, 640,736z
	 M 593.984,461.6c 0.192-4.704, 0.288-9.472, 0.288-14.272c0-145.632-108.96-313.632-308.192-313.632c-61.184,0-118.112,18.24-166.048,49.504
	c 8.448-0.992, 17.12-1.536, 25.856-1.536c 50.72,0, 97.44,17.632, 134.528,47.232C 232.96,229.76, 192.96,261.6, 179.168,305.376
	c 6.624-1.248, 13.408-1.984, 20.352-1.984c 9.888,0, 19.456,1.408, 28.576,3.904c-49.6,10.112-86.912,54.72-86.912,108.064c0,0.48,0,0.896,0,1.376
	c 14.592-8.256, 31.296-13.184, 49.024-13.824C 161.216,422.752, 142.048,456.48, 142.048,494.72c0,20.224, 5.344,39.136, 14.656,55.424
	c 53.44-66.72, 133.28-110.592, 223.264-115.2c-1.824,8.064-2.784,16.48-2.784,25.088c0,60.864, 48.544,110.24, 108.32,110.24
	c 31.168,0, 59.328-13.376, 79.072-34.816c 24.704,4.928, 47.904,14.112, 68.8,26.752c-8.096-25.76-25.248-47.36-47.616-60.992
	c 21.888,2.656, 42.784,8.64, 62.208,17.376C 633.44,496.544, 615.136,477.088, 593.984,461.6z"  />
<glyph unicode="&#xe032;" d="M 640.032,736L 128,736 C 57.632,736,0,678.368,0,608l0-512 c0-70.432, 57.632-128, 128-128l 512.032,0 c 70.4,0, 127.968,57.568, 127.968,128L 768,608 
	C 768,678.368, 710.432,736, 640.032,736z M 544,140.096c-28.16-15.712-55.296-23.328-108.608-23.328C 377.792,116.768, 288,138.144, 288,207.392L 288,384 L 192,384 L 192,464.544 
	c0,0, 52.544,5.664, 69.216,15.328c 10.336,6.048, 19.68,13.76, 27.776,22.72C 306.624,522.080, 318.112,547.648, 320.16,576L 384,576 l0-96 l 128,0 l0-96 l-128,0 l0-151.712 
	c0-21.568, 49.984-36.736, 81.312-36.736c 31.36,0, 78.592,16.096, 78.688,16.224L 544,140.096 z"  />
<glyph unicode="&#xe033;" d="M 639.008,736L 128.992,736 C 58.048,736,0,677.952,0,607.008l0-510.016 C0,26.048, 58.048-32, 128.992-32l 510.016,0 
			C 709.952-32, 768,26.048, 768,96.992L 768,607.008 C 768,677.952, 709.952,736, 639.008,736z M 384,496c-26.496,0-48-21.536-48-48l0-192 
			c0-79.36-64.608-144-144-144S 48,176.64, 48,256l0,96 l 96,0 l0-96 c0-26.464, 21.504-48, 48-48s 48,21.536, 48,48L 240,448 c0,79.36, 64.608,144, 144,144
			s 144-64.64, 144-133.504l0-46.528 l-61.504-17.984l-34.528,17.984L 431.968,458.496 C 432,474.464, 410.496,496, 384,496z M 720,256c0-79.36-64.608-144-144-144
			s-144,64.64-144,154.496l0,92.992 l 34.496-17.984l 61.536,17.984l0-92.992 c0-36.928, 21.536-58.496, 48-58.496s 48,21.536, 48,48l0,96 l 96,0 L 720,256z"  />
<glyph unicode="&#xe034;" d="M 640,736L 128,736 C 57.632,736,0,678.368,0,608l0-512 c0-70.432, 57.632-128, 128-128l 512,0 c 70.432,0, 128,57.568, 128,128L 768,608 C 768,678.368, 710.432,736, 640,736z
			 M 196.128,96.608C 158.528,96.608, 128,126.944, 128,164.544c0,37.344, 30.528,68.032, 68.128,68.032c 37.792,0, 68.256-30.688, 68.256-68.032
			C 264.384,126.944, 233.92,96.608, 196.128,96.608z M 367.424,96c0,64.16-24.928,124.512-70.112,169.632c-45.28,45.312-105.344,70.304-169.248,70.304L 128.064,434.048 
			c 186.272,0, 337.984-151.616, 337.984-338.048L 367.424,96 L 367.424,96z M 541.568,96c0,228.192-185.536,413.824-413.376,413.824L 128.192,608 C 410.368,608, 640,378.24, 640,96
			L 541.568,96 L 541.568,96z"  />
<glyph unicode="&#xe035;" d="M 640,736L 128,736 C 57.632,736,0,678.368,0,608l0-512 c0-70.432, 57.632-128, 128-128l 512,0 c 70.368,0, 128,57.568, 128,128L 768,608 C 768,678.368, 710.368,736, 640,736z
	 M 410.112,214.816c-35.744,2.816-50.688,20.48-78.688,37.472c-15.36-80.672-34.112-158.048-89.888-198.464c-17.184,121.984, 25.312,213.568, 44.992,310.816
	c-33.632,56.64, 4,170.336, 74.816,142.304c 87.232-34.432-75.424-210.176, 33.76-232.128c 114.016-23.008, 160.544,197.792, 89.888,269.6
	c-102.176,103.584-297.376,2.336-273.376-146.112c 5.888-36.224, 43.296-47.232, 14.976-97.28C 161.184,315.424, 141.76,367.040, 144.224,435.744
	c 4.032,112.512, 101.12,191.328, 198.496,202.304c 123.072,13.696, 238.688-45.28, 254.592-161.088C 615.296,346.24, 541.76,204.672, 410.112,214.816z"  />
<glyph unicode="&#xe036;" d="M 639.008,736L 128.992,736 C 58.048,736,0,677.952,0,607.008l0-510.016 C0,26.048, 58.048-32, 128.992-32l 510.016,0 
			C 709.952-32, 768,26.048, 768,96.992L 768,607.008 C 768,677.952, 709.952,736, 639.008,736z M 559.904,165.312c-133.216,0-179.36,60.064-203.968,134.72l-24.672,76.96
			c-18.432,56.192-40,100.096-107.744,100.096c-46.976,0-94.656-33.888-94.656-128.544c0-73.92, 37.728-120.096, 90.816-120.096
			c 60.032,0, 100.096,44.672, 100.096,44.672l 24.64-66.976c0,0-41.568-40.8-128.544-40.8c-107.776,0-167.808,63.136-167.808,180.128
			c0,121.632, 60.032,193.216, 173.152,193.216c 102.368,0, 153.984-36.96, 186.304-137.024l 25.376-76.96c 18.496-56.224, 50.816-96.96, 128.576-96.96
			c 52.352,0, 80.064,11.52, 80.064,40.032c0,22.304-13.088,38.464-52.384,47.712l-52.352,12.32c-63.872,15.36-89.28,48.512-89.28,100.832
			c0,83.936, 67.712,110.080, 137.024,110.080c 78.528,0, 126.208-28.512, 132.416-97.76l-76.96-9.216c-3.104,33.056-23.104,46.944-60.064,46.944
			c-33.856,0-54.624-15.392-54.624-41.568c0-23.104, 9.984-36.96, 43.84-44.64l 49.312-10.784c 66.176-15.392, 101.6-47.744, 101.6-110.080
			C 720,194.592, 655.36,165.312, 559.904,165.312z"  />
<glyph unicode="&#xe037;" d="M 640.48,736L 127.488,736 C 57.376,736,0,678.624,0,608.512l0-512.96 C0,25.376, 57.376-32, 127.488-32l 512.96,0 
			C 710.592-32, 768,25.376, 768,95.52l-0.032,512.96C 767.968,678.624, 710.592,736, 640.48,736z M 245.856,416l 276.288,0 
			c 5.248-15.040, 8.128-32.256, 8.128-49.056c0-80.64-65.632-146.24-146.24-146.24s-146.24,65.632-146.24,146.24C 237.76,383.744, 240.608,400.96, 245.856,416z
			 M 671.968,399.968L 671.968,208 l0-95.968 c0-26.4-21.6-48.032-48-48.032L 144,64.032c-26.4,0-48,21.6-48,48L 96,208 L 96,384 l0,32 l 75.072,0 
			c-3.488-15.424-5.312-32.576-5.312-49.056c0-120.32, 97.888-218.208, 218.24-218.208c 120.32,0, 218.208,97.888, 218.208,218.208
			c0,16.512-1.824,33.632-5.312,49.056l 75.072,0 L 671.968,399.968 z M 671.968,568c0-13.184-10.784-24-24-24l-48,0 c-13.184,0-24,10.816-24,24
			l0,48 c0,13.184, 10.816,24, 24,24l 48,0 c 13.216,0, 24-10.816, 24-24L 671.968,568 z"  />
<glyph unicode="&#xe038;" d="M 0.608,83.744c-0.192,1.92-0.352,3.808-0.448,5.696C 0.256,87.552, 0.448,85.664, 0.608,83.744z
			 M 176.928,312.128c 68.992-2.048, 115.296,69.568, 103.392,159.904c-11.936,90.336-77.536,162.88-146.56,164.928C 64.736,639.008, 18.496,569.888, 30.4,479.424
			C 42.304,389.12, 107.904,314.176, 176.928,312.128z M 768,544L 768,608 c0,70.368-57.568,128-128,128L 128,736 C 58.816,736, 2.016,680.32, 0.096,611.552
			c 43.776,38.528, 104.512,70.72, 167.168,70.72c 66.976,0, 267.936,0, 267.936,0l-59.968-50.688L 290.272,631.584 c 56.352-21.632, 86.368-87.136, 86.368-154.304
			c0-56.448-31.36-104.96-75.68-139.456c-43.232-33.696-51.424-47.776-51.424-76.448c0-24.416, 46.336-65.984, 70.528-83.072
			c 70.784-49.92, 93.696-96.256, 93.696-173.6c0-12.32-1.536-24.64-4.576-36.704L 640-32 c 70.432,0, 128,57.568, 128,128L 768,496 l-144,0 L 624,352 L 576,352 L 576,496 l-144,0 L 432,544 L 576,544 L 576,688 
			l 48,0 L 624,544 L 768,544 z M 139.424,161.568c 16.192,0, 31.040,0.416, 46.432,0.416c-20.352,19.744-36.48,43.936-36.48,73.792c0,17.696, 5.664,34.752, 13.6,49.92
			c-8.064-0.608-16.352-0.736-24.832-0.736c-55.776,0-103.136,18.016-138.144,47.872l0-50.432 l0-151.296 C 40.064,150.112, 87.68,161.568, 139.424,161.568z
			 M 2.56,70.56c-0.832,4.096-1.472,8.256-1.888,12.48C 1.088,78.816, 1.728,74.656, 2.56,70.56z M 341.6,21.376
			c-11.296,44.128-51.328,65.984-107.168,104.672c-20.32,6.56-42.656,10.4-66.656,10.656c-67.232,0.704-129.856-26.208-165.184-66.272
			C 14.528,12.128, 66.368-32, 128-32l 214.816,0 c 1.344,8.352, 2.016,16.96, 2.016,25.824C 344.864,3.232, 343.712,12.416, 341.6,21.376z"  />
<glyph unicode="&#xe039;" d="M 197.6,166.464c0-20.288, 17.152-30.4, 51.488-30.4c 30.048,0, 45.056,10.528, 45.056,31.584
			c0,19.904-16.384,29.856-49.152,29.856C 213.408,197.504, 197.6,187.136, 197.6,166.464z M 640,736L 128,736 C 57.6,736,0,678.368,0,608l0-512 c0-70.432, 57.6-128, 128-128l 512,0 
			c 70.432,0, 128,57.568, 128,128L 768,608 C 768,678.368, 710.432,736, 640,736z M 356.8,429.248c-5.472-1.952-13.28-4.096-23.392-6.432
			c 3.136-8.96, 4.672-17.376, 4.672-25.152c0-24.96-7.52-46.72-22.56-65.28c-15.008-18.496-34.432-29.536-58.208-33.056
			c-15.616-2.336-23.392-10.72-23.392-25.184c0-5.056, 2.528-10.112, 7.584-15.2c 6.624-7.424, 16.416-12.096, 29.28-14.048
			c 55.808-8.608, 83.68-31.776, 83.68-69.632c0-60.512-36.096-90.72-108.256-90.72c-29.664,0-54.048,5.28-73.152,15.776
			c-24.192,13.28-36.288,34.112-36.288,62.624c0,32.768, 18.144,55.2, 54.432,67.296L 191.2,231.36 c-13.28,8.224-19.904,20.704-19.904,37.504
			c0,21.856, 6.24,35.488, 18.72,40.96l0,1.152 c-12.48,4.32-23.616,14.048-33.344,29.28c-10.912,16.416-16.384,33.952-16.384,52.672
			c0,28.096, 9.952,51.488, 29.856,70.208c 19.136,17.568, 41.984,26.336, 68.48,26.336c 19.136,0, 36.864-4.672, 53.28-14.048
			c 18.688,0, 40.384,4.672, 64.96,14.048L 356.8,429.248L 356.8,429.248z M 451.616,226.752l-66.144,0 c 0.8,7.808, 1.184,21.056, 1.184,39.808L 386.656,448.608 
			c0,18.304-0.384,31.040-1.184,38.016l 66.144,0 c-0.768-7.424-1.184-19.712-1.184-36.864l0-179.648 C 450.432,250.144, 450.88,235.712, 451.616,226.752z
			 M 447.264,545.12c-8-8.576-17.472-12.864-28.416-12.864c-11.296,0-20.96,4.32-28.96,12.864c-8,8.608-12,18.72-12,30.432
			c0,12.096, 4,22.432, 12,31.040c 8,8.608, 17.664,12.832, 28.96,12.832c 10.944,0, 20.416-4.288, 28.416-12.832
			c 7.968-8.608, 12-18.912, 12-31.040C 459.264,563.872, 455.232,553.728, 447.264,545.12z M 631.296,234.368
			c-14.464-7.776-31.808-11.68-52.128-11.68c-28.48,0-48.192,10.112-59.104,30.4c-8.224,15.232-12.288,39.232-12.288,71.968L 507.776,429.856 l 0.576,0 L 508.352,431.008 
			l-8.768,0.608c-5.056,0-11.712-0.608-19.904-1.76l 0.032,56.768l 28.672,0 L 508.384,509.44 c0,10.912-0.576,19.68-1.76,26.336l 67.872,0 
			c-1.12-7.424-1.76-15.808-1.76-25.152l0-24 l 50.912,0 l0-56.736 c-1.952,0-5.568,0.192-10.816,0.576c-5.28,0.384-10.24,0.608-14.944,0.608
			l-25.152,0 l0-108.864 c0-26.112, 8.576-39.232, 25.76-39.232c 12.064,0, 23.008,3.328, 32.768,9.952L 631.264,234.368 L 631.296,234.368z M 240.896,435.68
			c-24.576,0-36.864-14.432-36.864-43.328c0-26.944, 12.288-40.416, 36.864-40.416c 23.808,0, 35.712,13.664, 35.712,40.96
			c0,11.328-2.72,21.056-8.192,29.248C 261.792,431.2, 252.64,435.68, 240.896,435.68z"  />
<glyph unicode="&#xe03a;" d="M 320,288l 128,0 l0-160 l-128,0 L 320,288 z M 639.008,736L 128.992,736 C 58.048,736,0,677.952,0,607.008l0-510.016 C0,26.048, 58.048-32, 128.992-32l 510.016,0 
			C 709.952-32, 768,26.048, 768,96.992L 768,607.008 C 768,677.952, 709.952,736, 639.008,736z M 448,128l0-96 l-128,0 l0,96 L 144,128 L 384,640l 240-512L 448,128 z"  />
<glyph unicode="&#xe03b;" d="M 640.032,736L 128,736 C 57.6,736,0,678.368,0,608l0-512 c0-70.432, 57.6-128, 128-128l 512,0 c 70.4,0, 127.968,57.6, 127.968,128L 767.968,608 
			C 768,678.368, 710.432,736, 640.032,736z M 216,232C 149.76,232, 96,285.76, 96,352s 53.76,120, 120,120S 336,418.24, 336,352S 282.24,232, 216,232z
			 M 552,232c-66.24,0-120,53.76-120,120s 53.76,120, 120,120S 672,418.24, 672,352S 618.304,232, 552,232z"  />
<glyph unicode="&#xe03c;" d="M 640,736L 128,736 C 57.6,736,0,678.368,0,608l0-512 c0-70.432, 57.6-128, 128-128l 512,0 c 70.432,0, 128,57.568, 128,128L 768,608 C 768,678.368, 710.432,736, 640,736z M 608,352
			l-96,0 l0-352 l-128,0 L 384,352 l-64,0 L 320,480 l 64,0 L 384,533.312 C 384,630.304, 425.888,704, 539.904,704L 640,704 l0-128 l-76.032,0 C 532.096,576.064, 512,552.48, 512,521.44L 512,480 l 96,0 L 608,352 z"  />
<glyph unicode="&#xe03d;" d="M 640,736L 128,736 C 57.632,736,0,678.368,0,608l0-512 c0-70.432, 57.632-128, 128-128l 512,0 c 70.368,0, 128,57.568, 128,128L 768,608 C 768,678.368, 710.368,736, 640,736z
	 M 608,192L 160,192 l0,211.552 l 224.096-105.888L 608,403.264L 608,192 z M 608,465.12l-224.096-105.504L 160,465.376L 160,512 l 448,0 L 608,465.12 z"  />
<glyph unicode="&#xe03e;" d="M 404.064,349.056c-148-47.84-226.72-178.24-233.312-189.376c-45.824,50.848-73.792,118.176-73.792,191.872
			c0,2.944, 0.032,5.888, 0.16,8.736c 12.544-0.224, 151.616-1.984, 294.976,40.832c 8.192-16.064, 16.064-32.384, 23.264-48.672
			C 411.52,351.392, 407.744,350.24, 404.064,349.056z M 574.24,566.24c-5.184-7.36-48.352-65.408-150.4-103.68c-47.008,86.368-99.2,157.44-107.104,168
			c 21.6,5.216, 44.096,8, 67.264,8C 456.896,638.56, 523.552,611.232, 574.24,566.24z M 368.384,445.312c-134.208-35.68-252.48-35.104-265.312-34.976
			c 18.624,89.088, 78.656,163.040, 158.912,200.96C 269.568,600.896, 320.8,529.888, 368.384,445.312z M 433.024,304.352c 0.608,0.288, 1.184,0.448, 1.856,0.672
			c 40.288-104.704, 56.96-192.448, 61.248-217.632C 461.664,72.704, 423.744,64.64, 384,64.64c-66.368,0-127.456,22.56-176.128,60.576
			C 212.992,135.744, 271.136,248, 433.024,304.352z M 639.008,736L 128.992,736 C 58.080,736,0,677.984,0,607.040l0-510.016 C0,26.048, 58.080-32, 128.992-32L 639.040-32 
			c 70.912,0, 128.96,58.016, 128.96,128.992L 767.968,607.040C 767.968,677.984, 709.952,736, 639.008,736z M 384,16.064c-185.312,0-336,150.72-336,335.968
			C 48,537.312, 198.688,688, 384,688c 185.28,0, 336.032-150.688, 336.032-335.968C 720.032,166.784, 569.28,16.064, 384,16.064z M 488.64,318.272
			c 89.952,14.368, 168.864-9.152, 178.752-12.256c-12.832-79.904-58.656-148.8-123.040-192.416C 541.408,131.072, 526.112,215.168, 488.64,318.272z
			 M 445.888,419.936c 106.112,43.328, 154.208,104.928, 160.288,113.12c 39.968-48.864, 64.16-111.072, 64.768-178.784c-9.44,1.984-104.32,21.216-199.808,9.248
			c-1.984,4.896-4.096,9.856-6.208,14.816C 458.944,392.352, 452.608,406.24, 445.888,419.936z"  />
<glyph unicode="&#xe03f;" d="M 639.008,736L 128.992,736 C 58.048,736,0,677.952,0,607.008l0-510.016 C0,26.048, 58.048-32, 128.992-32l 510.016,0 
			C 709.952-32, 768,26.048, 768,96.992L 768,607.008 C 768,677.952, 709.952,736, 639.008,736z M 720,160l-288,0 l0,176.992 c0,0, 52.736-0.736, 80.992-30.016L 512.992,256 l 115.808,0 
			c-8.864,28.416-27.808,56.32-54.848,80c-46.464,40.672-122.4,60.992-189.984,60.992L 383.968,160 L 48,160 l0,72 c0,32.576, 11.008,64.896, 31.776,93.6
			c 18.432,25.408, 44.128,47.84, 76.384,66.656C 193.984,414.304, 239.104,430.304, 288,439.328L 288,544 l 96,0 l0-96 c 110.24,0, 166.176-19.808, 227.84-55.744
			c 32.256-18.816, 57.984-41.248, 76.384-66.688c 20.768-28.672, 31.776-60.992, 31.776-93.568L 720,160 z M 149.696,256c 8.864,28.416, 27.808,56.32, 54.816,80
			c 23.68,20.704, 52.256,36.864, 83.488,47.808L 288,256 L 149.696,256 z"  />
<glyph unicode="&#xe040;" d="M 640,736L 128,736 C 57.312,736,0,678.688,0,608l0-512 c0-70.688, 57.312-128, 128-128l 512,0 c 70.688,0, 128,57.312, 128,128L 768,608 C 768,678.688, 710.688,736, 640,736z
			 M 672,249.952C 672,147.2, 588.384,64, 484.928,64L 283.328,64 C 179.904,64, 96,147.2, 96,249.952L 96,454.016 C 96.064,556.736, 179.904,640, 283.328,640l 94.368,0 
			c 103.488,0, 186.304-77.248, 186.304-180c 1.376-19.264, 18.688-36, 38.496-36l 0.64,0 l 31.616,0 c 20.672,0, 37.248-21.696, 37.248-42.24L 672,249.952 z
			 M 528,256c0-26.368-21.632-48-48-48L 288,208 c-26.368,0-48,21.632-48,48l0,0c0,26.368, 21.632,48, 48,48l 192,0 
			C 506.368,304, 528,282.368, 528,256L 528,256z M 432,448c0-26.368-21.632-48-48-48L 288,400 c-26.368,0-48,21.632-48,48l0,0
			c0,26.368, 21.632,48, 48,48l 96,0 C 410.368,496, 432,474.368, 432,448L 432,448z"  />
<glyph unicode="&#xe041;" d="M 635.424,320c 26.432,0, 53.92,4.736, 61.12,30.176L 766.208,582.4C 773.504,607.776, 757.888,640, 731.424,640L 224,640 
		C 204.352,694.336, 161.728,736, 81.024,736L 21.408,736 C 21.408,736,0,736,0,714.176c0-13.792,0-43.52,0-55.136C0,639.008, 18.88,640, 18.88,640l 60.128,0 
		c0,0, 23.008-0.224, 32.16-6.464C 128,622.016, 128,611.328, 128,611.328l0-409.312 C 128,171.040, 138.336,160, 166.816,160L 672,160 c 15.616,0, 18.304,4.352, 22.496,21.088
		s 10.624,40.352, 13.376,53.6C 712.896,258.976, 697.728,256, 683.584,256L 232.992,256 C 232.992,256, 224,256.992, 224,268.512C 224,280.512, 224,320, 224,320L 635.424,320 z M 224,544
		l 444.32,0 l-39.808-128L 224,416 L 224,544 zM 128,48A80,80 180 1 1 288,48A80,80 180 1 1 128,48zM 544,48A80,80 180 1 1 704,48A80,80 180 1 1 544,48z"  />
<glyph unicode="&#xe042;" d="M 96,736L 224,736L 224-32L 96-32zM 320,736L 448,736L 448-32L 320-32zM 544,736L 672,736L 672-32L 544-32zM 256,492.8C 256,485.728, 251.264,480, 245.312,480L 74.688,480 C 68.736,480, 64,485.728, 64,492.8L 64,595.2 C 64,602.272, 68.736,608, 74.688,608l 170.624,0 
		C 251.264,608, 256,602.272, 256,595.2L 256,492.8 zM 704,492.8C 704,485.728, 699.264,480, 693.312,480l-170.624,0 C 516.736,480, 512,485.728, 512,492.8L 512,595.2 C 512,602.272, 516.736,608, 522.688,608l 170.624,0 
		C 699.264,608, 704,602.272, 704,595.2L 704,492.8 zM 480,108.8c0-7.104-4.736-12.8-10.688-12.8L 298.688,96 C 292.736,96, 288,101.728, 288,108.8L 288,211.2 C 288,218.272, 292.736,224, 298.688,224
		l 170.624,0 C 475.264,224, 480,218.272, 480,211.2L 480,108.8 z"  />
<glyph unicode="&#xe043;" d="M 768,304.736l0,96 l-114.752,47.808c-3.232,8.992-6.528,17.76-10.656,26.24l 46.304,115.328l-67.904,67.872l-114.304-47.072
			c-8.704,4.256-17.632,7.744-26.784,11.072L 431.232,736l-96,0 L 287.776,622.432C 278.24,619.008, 269.056,615.424, 259.968,611.136L 145.92,656.928L 78.016,589.12
			l 46.528-113.12C 119.968,466.752, 116.32,457.312, 112.896,447.552L0,399.264l0-96 l 112.96-47.072c 3.488-9.76, 7.232-19.264, 11.68-28.512L 79.040,113.888
			l 67.872-67.872l 113.344,46.688c 9.088-4.32, 18.368-7.808, 27.936-11.136L 336.736-32l 95.936,0 l 47.584,114.176c 9.088,3.36, 18.048,6.944, 26.688,11.072
			l 115.136-46.112l 67.872,67.872l-47.264,114.56c 4.032,8.64, 7.296,17.312, 10.496,26.24L 768,304.736z M 383.264,207.936
			c-79.456,0-143.968,64.576-143.968,144.064s 64.512,144, 143.968,144c 79.488,0, 144.032-64.512, 144.032-144S 462.752,207.936, 383.264,207.936z"  />
<glyph unicode="&#xe044;" d="M 681.632,219.872c-35.904,36.448-81.504,55.264-124.096,55.264l-22.912,0 l-50.176,51.2L 685.28,531.2
			c 50.176,51.2, 50.176,153.568,0,204.736L 384,428.736L 82.688,736c-50.208-51.264-50.208-153.632,0-204.8l 200.864-204.8l-50.208-51.264L 210.464,275.136 
			c-42.624,0-88.128-18.816-124.064-55.264c-64.192-65.184-72.768-161.984-19.36-216.256C 90.592-20.352, 122.336-32, 155.808-32
			c 42.624,0, 88.224,18.816, 124.064,55.328c 42.112,42.656, 60.416,99.168, 52.832,148.224L 384,223.936l 51.36-52.416
			c-7.584-49.056, 10.656-105.568, 52.704-148.224C 523.904-13.184, 569.568-32, 612.192-32c 33.536,0, 65.216,11.648, 88.8,35.616
			C 754.368,57.92, 745.76,154.688, 681.632,219.872z M 259.168,110.784c-6.176-14.336-15.040-27.52-26.528-39.2
			c-11.424-11.616-24.416-20.704-38.624-26.848c-12.576-5.6-25.888-8.512-38.176-8.512c-11.936,0-28.704,2.72-41.6,15.68
			c-12.576,12.928-15.264,29.856-15.264,41.824c0,12.48, 2.816,25.824, 8.256,38.592c 6.048,14.336, 14.912,27.424, 26.368,39.2
			c 11.456,11.712, 24.512,20.704, 38.688,26.848c 12.64,5.536, 25.856,8.512, 38.176,8.512c 11.936,0, 28.736-2.72, 41.6-15.68
			c 12.64-12.928, 15.328-29.92, 15.328-41.856C 267.392,136.896, 264.544,123.552, 259.168,110.784z M 384,253.888c-39.264,0-71.008,32.48-71.008,72.512
			c0,39.936, 31.744,72.416, 71.008,72.416s 71.072-32.48, 71.072-72.416C 455.072,286.336, 423.264,253.888, 384,253.888z M 653.76,51.936
			c-12.8-12.96-29.632-15.68-41.568-15.68c-12.384,0-25.568,2.912-38.176,8.512c-14.176,6.112-27.2,15.232-38.624,26.848
			c-11.52,11.648-20.416,24.832-26.432,39.2c-5.472,12.768-8.352,26.112-8.352,38.56c0,11.936, 2.688,28.896, 15.392,41.856
			c 12.672,12.96, 29.632,15.68, 41.536,15.68c 12.352,0, 25.504-2.976, 38.208-8.512c 14.080-6.112, 27.104-15.136, 38.624-26.848
			c 11.424-11.744, 20.32-24.832, 26.368-39.2c 5.44-12.768, 8.288-26.112, 8.288-38.592C 669.024,81.792, 666.368,64.864, 653.76,51.936z"  />
<glyph unicode="&#xe045;" d="M 384,672C 207.328,672, 64,528.736, 64,352.064C 64,175.328, 207.328,32, 384,32s 320,143.328, 320,320.064C 704,528.736, 560.672,672, 384,672z M 384,224
	c-70.688,0-128,57.376-128,128.064C 256,422.688, 313.312,480, 384,480c 70.72,0, 128-57.312, 128-127.936C 512,281.376, 454.72,224, 384,224z"  />
<glyph unicode="&#xe046;" d="M 576,350.016c0-18.56-20.896-37.024-20.896-37.024L 254.144,41.6c0,0-19.808-17.312-45.184-5.44
	C 192,44.224, 192.064,70.016, 192.064,70.016L 192.064,631.36 c0,0-2.592,31.264, 21.44,39.264C 235.36,677.888, 261.44,654.24, 261.44,654.24l 292.832-266.496
	C 554.272,387.744, 576,368.736, 576,350.016z"  />
<glyph unicode="&#xe047;" d="M 384,736C 171.872,736,0,564.128,0,352s 171.872-384, 384-384s 384,171.872, 384,384S 596.128,736, 384,736z M 384,209.792L 383.808,288
	c-79.36-0.032-101.536,0-173.088,0C 197.312,288, 192,293.536, 192,305.28c0,1.6,0,90.528,0,92.096C 192,410.112, 196.288,416, 211.744,416
	C 289.632,416, 307.456,416.064, 384,416L 384,494.208 l 199.136-142.24L 384,209.792z"  />
<glyph unicode="&#xe048;" d="M 460.768,544L 768,352l-307.232-192l0,144 c-168.832,0-237.92,0-406.72,0c-72.096,0-72.096,96,0,96c 168.8,0, 237.888,0, 406.72,0L 460.768,544 z"  />
<glyph unicode="&#xe049;" d="M 35.136,388.64c 89.376,153.312, 335.264,150.88, 335.264,150.88l 66.176,0 L 436.576,672 L 768,428.992l-331.424-242.816l0,154.496 L 399.68,340.672 
	c0,0-187.008,30.176-286.944-70.624C 54.56,211.264, 45.952,32, 45.952,32S-49.824,242.688, 35.136,388.64z"  />
<glyph unicode="&#xe04a;" d="M 32,320l 320,0 l0-320 l-119.776,119.584L 80.672-32L0,48.672l 151.552,151.52L 32,320z M 616.448,200.192L 768,48.672L 687.36-32
			l-151.584,151.584L 416,0L 416,320 l 320,0 L 616.448,200.192z M 736,384L 416,384 L 416,704 l 119.776-119.552L 687.36,736L 768,655.36l-151.552-151.552L 736,384z M 232.224,584.448L 352,704l0-320 L 32,384 
			l 119.552,119.808L0,655.36L 80.672,736L 232.224,584.448z"  />
<glyph unicode="&#xe04b;" d="M 768,736l0-288 l-103.68,103.712l-159.040-158.976L 424.736,473.28l 158.976,158.976L 480,736L 768,736 z M 184.288,632.256l 159.008-158.976l-80.544-80.544
			l-159.040,158.976L0,448L0,736 l 288,0 L 184.288,632.256z M 664.32,152.288l 103.68,103.68L 768-32 l-288,0 l 103.712,103.712l-158.976,159.008l 80.544,80.544L 664.32,152.288z
			 M 343.296,230.72l-159.008-159.008L 288-32L0-32 l0,287.968 l 103.712-103.68l 159.040,158.976L 343.296,230.72z"  />
<glyph unicode="&#xe04c;" d="M 456,327.36l 190.624,0 c-2.048-36.768-7.136-84.96-19.68-110.752C 591.584,144.128, 480,155.072, 480,155.072L 480,32 
		c0,0, 71.424,3.136, 104.544,8C 663.68,51.616, 768,113.984, 768,247.328c0,25.696,0,33.024,0,34.816l0,0.672 L 768,352 l0,24.64 L 768,647.36 
		C 768,660.96, 757.28,672, 744,672l-288,0 c-13.248,0-24-11.040-24-24.64L 432,352 C 432,338.4, 442.752,327.36, 456,327.36zM 24,327.36l 190.624,0 c-2.048-36.768-7.136-84.96-19.68-110.752C 159.584,144.128, 48,155.072, 48,155.072L 48,32 
		c0,0, 71.424,3.136, 104.544,8c 79.168,11.616, 183.456,73.984, 183.456,207.328c0,25.696,0,33.024,0,34.816l0,0.672 L 336,352 l0,24.64 L 336,647.36 
		C 336,660.96, 325.28,672, 312,672l-288,0 C 10.752,672,0,660.96,0,647.36L0,352 C0,338.4, 10.752,327.36, 24,327.36z"  />
<glyph unicode="&#xe04d;" d="M 312,376.64L 121.376,376.64 c 2.048,36.768, 7.136,84.96, 19.68,110.752C 176.416,559.872, 288,548.928, 288,548.928L 288,672 
		c0,0-71.424-3.136-104.544-8C 104.32,652.384,0,590.016,0,456.672c0-25.696,0-33.024,0-34.816l0-0.672 L0,352 l0-24.64 l0-270.752 C0,43.040, 10.72,32, 24,32l 288,0 
		c 13.248,0, 24,11.040, 24,24.64L 336,352 C 336,365.6, 325.248,376.64, 312,376.64zM 744,376.64l-190.624,0 c 2.048,36.768, 7.136,84.96, 19.68,110.752C 608.416,559.872, 720,548.928, 720,548.928L 720,672 
		c0,0-71.424-3.136-104.544-8C 536.32,652.384, 432,590.016, 432,456.672c0-25.696,0-33.024,0-34.816l0-0.672 L 432,352 l0-24.64 l0-270.752 
		c0-13.6, 10.72-24.64, 24-24.64l 288,0 c 13.248,0, 24,11.040, 24,24.64L 768,352 C 768,365.6, 757.248,376.64, 744,376.64z"  />
<glyph unicode="&#xe04e;" d="M 679.424,736L 88.736,736 C 39.488,736,0,696.32,0,647.328l0-590.752 C0,7.616, 39.488-32, 88.736-32l 590.688,0 
		C 728.256-32, 768,7.616, 768,56.576L 768,647.328 C 768,696.32, 728.256,736, 679.424,736z M 672,101.952C 672,76.8, 659.008,64, 633.984,64L 133.952,64 
		C 109.184,64, 96,76.8, 96,101.952L 96,601.984 C 96,627.072, 109.184,640, 133.952,640l 500.064,0 C 659.008,640, 672,627.072, 672,601.984L 672,101.952 zM 224,544L 544,352.032L 224,160 z"  />
<glyph unicode="&#xe04f;" d="M 679.424,736L 88.736,736 C 39.488,736,0,696.32,0,647.328l0-590.752 C0,7.616, 39.488-32, 88.736-32l 590.688,0 
		C 728.256-32, 768,7.616, 768,56.576L 768,647.328 C 768,696.32, 728.256,736, 679.424,736z M 672,101.952C 672,76.8, 659.008,64, 633.984,64L 133.952,64 
		C 109.184,64, 96,76.8, 96,101.952L 96,601.984 C 96,627.072, 109.184,640, 133.952,640l 500.064,0 C 659.008,640, 672,627.072, 672,601.984L 672,101.952 zM 160,576L 608,576L 608,480L 160,480zM 160,416L 608,416L 608,320L 160,320zM 160,256L 336.864,256L 336.864,160L 160,160z"  />
<glyph unicode="&#xe050;" d="M 679.424,736L 88.736,736 C 39.488,736,0,696.32,0,647.328l0-590.752 C0,7.616, 39.488-32, 88.736-32l 590.688,0 
		C 728.256-32, 768,7.616, 768,56.576L 768,647.328 C 768,696.32, 728.256,736, 679.424,736z M 672,101.952C 672,76.8, 659.008,64, 633.984,64L 133.952,64 
		C 109.184,64, 96,76.8, 96,101.952L 96,601.984 C 96,627.072, 109.184,640, 133.952,640l 500.064,0 C 659.008,640, 672,627.072, 672,601.984L 672,101.952 zM 278.4,381.568c 4.768,7.488, 12.416,13.792, 22.784,18.848C 311.584,405.472, 326.4,408, 345.6,408L 307.2,480
	C 278.4,480, 256.192,475.136, 240.608,465.376S 213.6,439.488, 206.4,416.992c-7.232-22.496-11.392-52.128-12.608-88.864C 192.608,291.36, 192,246.016, 192,192l 153.6,0 l0,144 
	L 268.8,336 c0,6.368, 0.384,13.696, 1.184,21.952C 270.784,366.176, 273.6,374.048, 278.4,381.568zM 508.8,381.568c 4.768,7.488, 12.384,13.792, 22.784,18.848S 556.8,408, 576,408L 537.6,480
	c-28.768,0-51.008-4.864-66.592-14.624s-27.008-25.888-34.176-48.384c-7.232-22.496-11.392-52.128-12.64-88.864
	C 423.008,291.36, 422.4,246.016, 422.4,192L 576,192 l0,144 l-76.8,0 c0,6.368, 0.416,13.696, 1.216,21.952C 501.184,366.176, 504,374.048, 508.8,381.568z"  />
<glyph unicode="&#xe051;" d="M 679.424,736L 88.736,736 C 39.488,736,0,696.32,0,647.328l0-590.752 C0,7.616, 39.488-32, 88.736-32l 590.688,0 
			C 728.256-32, 768,7.616, 768,56.576L 768,647.328 C 768,696.32, 728.256,736, 679.424,736z M 672,101.952C 672,76.8, 659.008,64, 633.984,64L 133.952,64 
			C 109.184,64, 96,76.8, 96,101.952L 96,601.984 C 96,627.072, 109.184,640, 133.952,640l 500.064,0 C 659.008,640, 672,627.072, 672,601.984L 672,101.952 zM 160,576L 288,576L 288,448L 160,448zM 320,576L 448,576L 448,448L 320,448zM 480,576L 608,576L 608,448L 480,448zM 160,416L 288,416L 288,288L 160,288z"  />
<glyph unicode="&#xe052;" d="M 679.424,736L 88.736,736 C 39.488,736,0,696.32,0,647.328l0-590.752 C0,7.616, 39.488-32, 88.736-32l 590.688,0 
		C 728.256-32, 768,7.616, 768,56.576L 768,647.328 C 768,696.32, 728.256,736, 679.424,736z M 672,101.952C 672,76.8, 659.008,64, 633.984,64L 133.952,64 
		C 109.184,64, 96,76.8, 96,101.952L 96,601.984 C 96,627.072, 109.184,640, 133.952,640l 500.064,0 C 659.008,640, 672,627.072, 672,601.984L 672,101.952 zM 538.688,544l-149.376,0 C 368.704,544, 352,529.696, 352,512l0-96 l 64,0 L 416,466.272 C 416,473.888, 423.2,480, 432,480l 64,0 C 504.832,480, 512,473.888, 512,466.272
	l0-68.576 C 512,390.112, 504.832,384, 496,384l-20.992,0 L 432,384 L 352,384 L 256,384 L 229.312,384 C 208.704,384, 192,369.696, 192,352l0-160 c0-17.696, 16.704-32, 37.312-32l 149.376,0 
	C 399.296,160, 416,174.304, 416,192l0,96 l-64,0 l0-50.272 C 352,230.112, 344.832,224, 336,224l-64,0 C 263.2,224, 256,230.112, 256,237.728l0,68.576 
	C 256,313.888, 263.2,320, 272,320L 288,320 l 48,0 L 416,320 l 91.008,0 l 31.68,0 C 559.296,320, 576,334.304, 576,352L 576,512 C 576,529.696, 559.296,544, 538.688,544z"  />
<glyph unicode="&#xe053;" d="M 679.424,736L 88.736,736 C 39.488,736,0,696.32,0,647.328l0-590.752 C0,7.616, 39.488-32, 88.736-32l 590.688,0 
		C 728.256-32, 768,7.616, 768,56.576L 768,647.328 C 768,696.32, 728.256,736, 679.424,736z M 672,101.952C 672,76.8, 659.008,64, 633.984,64L 133.952,64 
		C 109.184,64, 96,76.8, 96,101.952L 96,601.984 C 96,627.072, 109.184,640, 133.952,640l 500.064,0 C 659.008,640, 672,627.072, 672,601.984L 672,101.952 zM 608,192L 160,192L 261.248,368L 353.536,304L 464.992,512 z"  />
<glyph unicode="&#xe054;" d="M 312.992,481.984L 544,560l0-25.984 l0-52 l0-220.992 c0-35.872-32.864-64.992-73.504-64.992c-40.608,0-73.504,29.12-73.504,64.992
			c0,35.936, 32.896,65.024, 73.504,65.024c 11.264,0, 21.984-2.24, 31.488-6.272L 501.984,453.632 l-147.008-49.632l0-195.008 c0-35.872-32.896-64.992-73.504-64.992
			S 208,173.12, 208,208.992s 32.896,64.992, 73.504,64.992c 11.296,0, 21.952-2.24, 31.488-6.208l0,136.224 L 312.992,481.984 zM 679.424,736L 88.736,736 C 39.488,736,0,696.32,0,647.328l0-590.752 C0,7.616, 39.488-32, 88.736-32l 590.688,0 
			C 728.256-32, 768,7.616, 768,56.576L 768,647.328 C 768,696.32, 728.256,736, 679.424,736z M 672,101.952C 672,76.8, 659.008,64, 633.984,64L 133.952,64 
			C 109.184,64, 96,76.8, 96,101.952L 96,601.984 C 96,627.072, 109.184,640, 133.952,640l 500.064,0 C 659.008,640, 672,627.072, 672,601.984L 672,101.952 z"  />
<glyph unicode="&#xe055;" d="M 362.688,672c 47.2,0, 87.552-35.936, 87.552-79.936l0-92.928 c 10.112,4.64, 19.2,7.136, 31.264,7.136
			c 19.936,0, 38.496-7.072, 52.576-19.264c 6.752,1.696, 13.632,2.56, 20.576,2.56c 19.808,0, 38.496-6.944, 52.576-19.328
			c 6.624,1.632, 13.632,2.624, 20.672,2.624c 41.952,0, 76.128-31.488, 76.128-70.24l0-10.624 l0-29.952 c0-43.616-5.12-75.424-15.872-99.744
			c-10.176-23.072-24.128-35.936-35.36-46.24c-14.688-13.248-26.56-16.32-29.44-56.128c0,0-0.928,0, 3.008,0c 15.488,0, 22.496-11.488, 22.496-20.32
			c0-20.672,0-68.32,0-87.68c0-11.68-9.12-19.936-21.44-19.936c-84.576,0-270.24,0-356.64,0c-10.816,0-19.2,7.36-19.2,19.136
			c0,21.376,0,68.64,0,90.496c0,13.12, 11.072,18.304, 21.184,18.304c 3.744,0, 14.88,0, 14.88,0c-0.928,1.504, 0.512-1.952-0.64-0.512
			c-35.808,47.872-64.32,68.8-133.696,68.8C 104.128,228.256, 64,265.76, 64,312c0,46.112, 40.128,83.808, 89.312,83.808
			c 56.992,0, 66.304-7.072, 120.384-21.184L 273.696,592.064 C 273.696,636.064, 315.552,672, 362.688,672z M 597.312,112.064c-11.744,0-21.312-8.992-21.312-20
			c0-11.072, 9.568-20.128, 21.312-20.128s 21.376,9.056, 21.376,20.128C 618.688,103.072, 609.056,112.064, 597.312,112.064z M 362.688,628.192
			c-23.488,0-44.864-17.888-44.864-39.936l0-272.992 C 305.76,317.76, 292.512,321.44, 277.44,325.12c-53.76,15.36-66.944,23.264-124.128,23.264
			c-21.312,0-45.248-17.632-45.248-37.568c0-20, 23.936-38.752, 45.248-38.752c 85.568,0, 133.504-31.936, 178.56-92.064
			c 5.056-6.24, 10.304-14.752, 13.76-20.064l 227.328,0 c 4.448,57.952, 25.568,69.12, 44.512,86.432c 18.432,16.736, 43.744,32.8, 43.744,111.808l0,30.016 
			l0,10.688 c0,16.64-15.008,30.176-33.312,30.176c-6.016,0-11.68-1.376-16.672-3.936l-17.376-8.992l-10.752,15.616
			c-6.176,8.672-16.864,14.112-28.448,14.112c-5.824,0-11.552-1.568-16.576-4.128l-17.312-8.864l-10.816,15.552
			c-6.176,8.736-16.864,14.048-28.448,14.048c-18.432,0-33.44-13.44-33.44-30.176l 2.176-4.064l-44.928,0 l 0.8,4.192L 406.112,588.256 
			C 406.112,610.304, 386.176,628.192, 362.688,628.192z"  />
<glyph unicode="&#xe056;" d="M 704,373.376c0-47.2-35.808-87.552-80-87.552l-92.864,0 c 4.64-10.048, 7.2-19.328, 7.2-31.36
			c0-19.872-7.072-38.496-19.424-52.512c 1.824-6.688, 2.752-13.696, 2.752-20.576c0-19.872-7.2-38.56-19.424-52.576
			c 1.696-6.688, 2.688-13.632, 2.688-20.64c0-41.952-31.488-76.192-70.24-76.192L 424,31.968 l-30.048,0 c-43.552,0-75.264,5.184-99.552,15.744
			c-23.136,10.24-36.128,24.192-46.272,35.488c-13.344,14.688-16.32,26.688-56.128,29.44c0,0,0,0.992,0-3.072c0-15.36-11.552-22.432-20.352-22.432
			c-20.608,0-68.352,0-87.68,0C 72.288,87.2, 64,96.384, 64,108.672c0,84.512,0,270.304,0,356.576c0,10.88, 7.328,19.264, 19.072,19.264
			c 21.312,0, 68.672,0, 90.464,0c 13.152,0, 18.432-11.136, 18.432-21.248c0-3.744,0-14.944,0-14.944c 1.504,0.992-1.92-0.576-0.512,0.672
			c 47.84,35.744, 68.704,64.32, 68.704,133.696C 260.192,631.872, 297.824,672, 344,672c 46.112,0, 83.744-40.128, 83.744-89.312c0-56.928-7.136-66.368-21.12-120.32
			L 624,462.368 C 668.192,462.368, 704,420.512, 704,373.376z M 143.968,138.688C 143.968,150.496, 135.040,160, 124.032,160c-11.104,0-20.064-9.504-20.064-21.312
			c0-11.744, 8.96-21.376, 20.064-21.376C 135.040,117.312, 143.968,126.944, 143.968,138.688z M 660.256,373.376c0,23.488-17.984,44.864-40,44.864l-272.992,0 
			c 2.496,12, 6.112,25.184, 9.984,40.32c 15.264,53.888, 23.008,67.008, 23.008,124.128c0,21.376-17.504,45.184-37.504,45.184S 304,604, 304,582.688
			c0-85.696-31.872-133.376-92.128-178.624c-6.112-5.056-14.624-10.176-19.904-13.76l0-227.2 c 57.856-4.448, 69.024-25.632, 86.336-44.512
			c 16.8-18.496, 32.928-43.872, 111.936-43.872l 30.016,0 l 10.624,0 c 16.64,0, 30.112,15.008, 30.112,33.44c0,5.952-1.248,11.488-4,16.672l-8.864,17.312
			l 15.488,10.816c 8.864,6.112, 14.176,16.736, 14.176,28.384c0,5.76-1.44,11.616-4.064,16.64l-8.864,17.12l 15.488,11.008
			c 8.736,6.176, 14.112,16.8, 14.112,28.32c0,18.496-13.504,33.568-30.24,33.568l-4-2.176l0,44.864 l 4.128-0.672l 155.872,0 
			C 642.24,329.984, 660.256,349.76, 660.256,373.376z"  />
<glyph unicode="&#xe057;" d="M 144,462.368l 217.344,0 c-13.952,53.952-21.088,63.36-21.088,120.32C 340.256,631.872, 377.856,672, 424.032,672
			c 46.144,0, 83.776-40.128, 83.776-89.312c0-69.376, 20.864-97.952, 68.704-133.696c 1.408-1.248-1.984,0.32-0.512-0.672c0,0,0,11.2,0,14.944
			c0,10.112, 5.28,21.248, 18.432,21.248c 21.824,0, 69.152,0, 90.464,0C 696.672,484.512, 704,476.128, 704,465.248c0-86.24,0-272.064,0-356.576
			c0-12.32-8.288-21.504-19.936-21.504c-19.328,0-67.104,0-87.68,0c-8.768,0-20.352,7.072-20.352,22.432c0,4.064,0,3.072,0,3.072
			c-39.808-2.752-42.784-14.752-56.128-29.44c-10.144-11.328-23.136-25.248-46.24-35.488C 449.312,37.184, 417.632,32, 374.048,32l-30.016,0 l-10.688,0 
			c-38.688,0-70.176,34.24-70.176,76.192c0,7.008, 0.928,13.952, 2.656,20.64C 253.568,142.816, 246.4,161.504, 246.4,181.376
			c0,6.88, 0.896,13.888, 2.688,20.576c-12.384,14.016-19.392,32.64-19.392,52.512c0,12.064, 2.592,21.312, 7.2,31.36L 144,285.824 
			c-44.192,0-80,40.384-80,87.552C 64,420.512, 99.808,462.368, 144,462.368z M 643.968,117.312c 11.104,0, 20.064,9.632, 20.064,21.376
			c0,11.808-8.96,21.312-20.064,21.312c-11.008,0-19.936-9.504-19.936-21.312C 624.032,126.944, 632.96,117.312, 643.968,117.312z M 147.744,329.984
			l 155.904,0 l 4.096,0.672l0-44.864 L 303.712,288c-16.704,0-30.176-15.072-30.176-33.568c0-11.488, 5.312-22.112, 14.080-28.32l 15.456-11.008l-8.864-17.12
			c-2.592-4.992-4.032-10.88-4.032-16.64c0-11.616, 5.312-22.24, 14.176-28.384l 15.52-10.816l-8.928-17.312
			c-2.72-5.184-4-10.752-4-16.672c0-18.432, 13.536-33.44, 30.176-33.44l 10.56,0 l 30.048,0 c 79.008,0, 95.104,25.376, 111.904,43.872
			c 17.28,18.88, 28.512,40.064, 86.336,44.512l0,227.2 c-5.28,3.552-13.792,8.672-19.904,13.76c-60.256,45.248-92.16,92.928-92.16,178.624
			c0,21.312-18.752,45.184-38.752,45.184c-19.968,0-37.472-23.808-37.472-45.184c0-57.12, 7.744-70.24, 23.040-124.128
			c 3.84-15.136, 7.456-28.32, 9.952-40.32l-272.96,0 c-22.016,0-39.968-21.376-39.968-44.864C 107.776,349.76, 125.728,329.984, 147.744,329.984z"  />
<glyph unicode="&#xe058;" d="M 405.312,32c-47.2,0-87.552,35.936-87.552,79.936l0,92.928 c-10.112-4.64-19.2-7.136-31.264-7.136
			c-19.936,0-38.496,7.072-52.576,19.264c-6.752-1.696-13.632-2.56-20.576-2.56c-19.808,0-38.496,6.944-52.576,19.328
			c-6.624-1.632-13.632-2.624-20.672-2.624C 98.176,231.136, 64,262.624, 64,301.376L 64,312 l0,29.952 c0,43.616, 5.12,75.424, 15.872,99.744
			C 90.048,464.736, 104,477.632, 115.264,487.936c 14.688,13.248, 26.56,16.32, 29.44,56.128c0,0, 0.928,0-3.008,0c-15.488,0-22.496,11.488-22.496,20.32
			c0,20.672,0,68.32,0,87.68C 119.2,663.744, 128.32,672, 140.64,672c 84.576,0, 270.24,0, 356.64,0c 10.816,0, 19.2-7.36, 19.2-19.136
			c0-21.376,0-68.64,0-90.496c0-13.12-11.072-18.304-21.184-18.304c-3.744,0-14.88,0-14.88,0c 0.928-1.504-0.512,1.952, 0.64,0.512
			c 35.808-47.872, 64.32-68.8, 133.696-68.8C 663.872,475.744, 704,438.24, 704,392c0-46.112-40.128-83.808-89.312-83.808
			c-56.992,0-66.304,7.072-120.384,21.184l0-217.44 C 494.304,67.936, 452.448,32, 405.312,32z M 170.688,591.936C 182.432,591.936, 192,600.928, 192,611.936
			c0,11.072-9.568,20.128-21.312,20.128S 149.312,623.008, 149.312,611.936C 149.312,600.928, 158.944,591.936, 170.688,591.936z M 405.312,75.808
			c 23.488,0, 44.864,17.888, 44.864,39.936l0,272.992 c 12.064-2.496, 25.312-6.176, 40.384-9.888c 53.76-15.36, 66.944-23.264, 124.128-23.264
			c 21.312,0, 45.248,17.632, 45.248,37.568c0,20-23.936,38.752-45.248,38.752c-85.568,0-133.504,31.936-178.56,92.064
			c-5.056,6.24-10.304,14.752-13.76,20.064L 195.072,544.032 c-4.448-57.952-25.568-69.12-44.512-86.432c-18.432-16.736-43.744-32.8-43.744-111.808l0-30.016 
			l0-10.688 c0-16.64, 15.008-30.176, 33.312-30.176c 6.016,0, 11.68,1.376, 16.672,3.936l 17.376,8.992l 10.752-15.616
			c 6.176-8.672, 16.864-14.112, 28.448-14.112c 5.824,0, 11.552,1.568, 16.576,4.128l 17.312,8.864l 10.816-15.552
			c 6.176-8.736, 16.864-14.048, 28.448-14.048c 18.432,0, 33.44,13.44, 33.44,30.176L 317.76,275.744l 44.928,0 l-0.8-4.192l0-155.808 
			C 361.888,93.696, 381.824,75.808, 405.312,75.808z"  />
<glyph unicode="&#xe059;" d="M 384,736C 171.872,736,0,564.128,0,352s 171.872-384, 384-384s 384,171.872, 384,384S 596.128,736, 384,736z M 576,288l-128,0 l0-128 l-128,0 l0,128 L 192,288 l0,128 l 128,0 L 320,544 l 128,0 l0-128 l 128,0 
	L 576,288 z"  />
<glyph unicode="&#xe05a;" d="M 672,349.504c0,17.056-31.488,34.176-31.488,34.176L 149.12,657.632c0,0-29.92,19.68-41.76,12.992
	c-12.192-6.816-11.328-35.2-11.328-35.2l0-562.24 c0,0-1.472-30.688, 12.864-38.752c 13.408-7.488, 40.832,4.736, 40.832,4.736l 489.76,275.616
	C 639.488,314.816, 672,332.192, 672,349.504z"  />
<glyph unicode="&#xe05b;" d="M 478.624,576L 289.472,576 C 271.072,576, 256,557.952, 256,537.152l0-207.136 c0-16.448, 10.976-29.952, 24.416-29.952
		c 13.408,0, 31.584,13.504, 31.584,29.952L 312,452.832 L 320,452.832 l0-451.808 C 320-17.088, 325.568-32, 341.664-32l 8.224,0 c 16.064,0, 30.112,14.912, 30.112,33.024L 380,224 l 8,0 
		l0-222.976 c0-18.112, 14.048-33.024, 30.112-33.024l 8.256,0 C 442.432-32, 448-17.088, 448,1.024L 448,452.832 l 8,0 l0-122.816 c0-16.448, 18.24-29.952, 31.68-29.952
		c 13.376,0, 24.32,13.504, 24.32,29.952L 512,537.152 C 512,557.952, 496.992,576, 478.624,576zM 320,672A64,64 180 1 1 448,672A64,64 180 1 1 320,672z"  />
<glyph unicode="&#xe05c;" d="M 320,672A64,64 180 1 1 448,672A64,64 180 1 1 320,672zM 542.496,339.552l-64.864,214.464C 473.376,568.128, 463.008,576, 449.664,576L 318.368,576 C 305.504,576, 294.592,568.128, 290.368,554.016
		l-64.832-214.464c-4.704-15.584, 1.888-32.256, 14.656-36.96s 27.072,4.16, 31.776,19.808l 37.024,122.624l 8.64,0 L 254.528,224L 320,224 l0-222.976 
		C 320-17.088, 331.072-32, 347.488-32l 3.776,0 c 16.448,0, 28.704,14.912, 28.704,33.024L 379.968,224 l 8,0 l0-222.976 c0-18.112, 12.352-33.024, 28.704-33.024l 3.84,0 
		C 436.96-32, 448-17.088, 448,1.024L 448,224 l 65.504,0 l-63.104,221.024l 8.608,0 l 37.024-122.624c 4.704-15.648, 19.040-24.544, 31.808-19.808
		C 540.608,307.328, 547.2,323.968, 542.496,339.552z"  />
<glyph unicode="&#xe05d;" d="M 720,160c0,0-198.016,0-240,0c-41.984,0, 48.032-144.032, 48.032-144.032C 528.032-10.528, 506.528-32, 480-32L 288-32 
			c-26.528,0-48,21.472-48,47.968c0,0, 91.488,144.032, 48,144.032s-240,0-240,0C 21.504,160,0,181.472,0,207.968L0,659.2 C0,710.016, 28.672,736, 76.8,736
			L 691.2,736 C 745.056,736, 768,704.576, 768,659.2l0-451.232 C 768,181.472, 746.528,160, 720,160z M 384.032,158.4c 26.496,0, 47.936,21.472, 47.936,47.968
			c0,26.56-21.44,48.032-47.936,48.032c-26.56,0-48.032-21.472-48.032-48.032C 336,179.872, 357.472,158.4, 384.032,158.4z M 672,608
			c0,22.496-11.040,32-32,32L 128,640 C 105.856,640, 96,629.76, 96,608l0-288 c0-26.72, 9.056-32, 32-32l 512,0 c 24.8,0, 32,6.016, 32,32L 672,608 z"  />
<glyph unicode="&#xe05e;" d="M 258.272,592L 736,736l0-48 l0-96 l0-408.032 c0-49.792-68.96-120-153.984-120c-85.056,0-153.984,53.728-153.984,120
			c0,66.336, 68.896,120.032, 153.984,120.032c 23.616,0, 58.56-4.192, 78.56-11.552L 660.576,539.616 L 333.728,448l0-360 c0-66.272-62.656-120-147.776-120
			C 100.96-32, 32,21.728, 32,88c0,66.24, 68.96,120, 153.952,120c 23.68,0, 52.384-4.16, 72.352-11.584L 258.304,448 L 258.304,592 z"  />
<glyph unicode="&#xe05f;" d="M 128,416L 256,416L 256,288L 128,288zM 320,416L 448,416L 448,288L 320,288zM 512,416L 640,416L 640,288L 512,288z"  />
<glyph unicode="&#xe060;" d="M 384,736C 171.872,736,0,564.128,0,352s 171.872-384, 384-384s 384,171.872, 384,384S 596.128,736, 384,736z M 544,288L 224,288 l0,128 l 320,0 L 544,288 z"  />
<glyph unicode="&#xe061;" d="M0,704L 768,704L 768,544L0,544zM0,416L 768,416L 768,256L0,256zM0,128L 768,128L 768-32L0-32z"  />
<glyph unicode="&#xe062;" d="M 382.4-32C 382.4-32, 128,305.504, 128,449.504C 128,733.024, 382.4,736, 382.4,736S 640,733.024, 640,451.008
			C 640,302.496, 382.4-32, 382.4-32z M 384,592c-52.992,0-96-42.976-96-96c0-52.992, 43.008-96, 96-96s 96,43.008, 96,96C 480,549.024, 436.992,592, 384,592z"  />
<glyph unicode="&#xe063;" d="M 384.448-32C 238.368-32, 160,95.904, 160,187.936c0,48, 0.032,141.248, 0.96,227.936l 0.128,175.68
		C 161.088,649.984, 212.192,736, 320.224,736c 116.736,0, 159.136-75.808, 159.136-147.36c0-73.6, 0.096-140.032, 0.16-204.448
		c 0.896-56.384, 0.928-111.168, 0.928-165.632c0-80.736-50.016-109.376-96-109.376c-34.816,0-92.64,14.592-92.64,114.688l 0.192,198.112l 69.76,0 
		l-0.128-198.112c0-49.248, 14.272-49.248, 22.816-49.248c 7.68,0, 26.208,0, 26.208,43.936c0,54.24,0,108.608-0.928,165.472
		C 409.664,448.448, 409.6,515.040, 409.6,588.64c0,54.208-30.4,81.952-89.376,81.952c-66.56,0-89.312-54.336-89.312-79.008l-0.16-175.68
		c-0.928-86.848-0.96-179.936-0.96-227.936c0-64.576, 53.44-154.496, 154.656-154.496c 80.864,0, 152.672,61.44, 152.672,132L 538.24,493.856L 608,493.856 L 606.912,165.44
		C 606.912,58.080, 504.576-32, 384.448-32z"  />
<glyph unicode="&#xe064;" d="M 192,350.016c0-18.56, 20.896-37.024, 20.896-37.024l 300.928-271.36c0,0, 19.808-17.312, 45.152-5.44
	c 16.992,8.064, 16.928,33.888, 16.928,33.888L 575.904,631.36 c0,0, 2.56,31.264-21.472,39.264c-21.856,7.264-47.904-16.384-47.904-16.384l-292.832-266.496
	C 213.728,387.744, 192,368.736, 192,350.016z"  />
<glyph unicode="&#xe065;" d="M 384-32c 212.128,0, 384,171.872, 384,384S 596.128,736, 384,736S0,564.128,0,352S 171.872-32, 384-32z M 384,494.208L 384.192,416
	c 79.36,0.032, 101.536,0, 173.088,0C 570.688,416, 576,410.464, 576,398.72c0-1.6,0-90.528,0-92.096C 576,293.888, 571.712,288, 556.256,288
	c-77.888,0-95.712-0.064-172.256,0l0-78.208 l-199.136,142.24L 384,494.208z"  />
<glyph unicode="&#xe066;" d="M 307.232,160L0,352l 307.232,192l0-144 c 168.832,0, 237.92,0, 406.72,0c 72.096,0, 72.096-96,0-96c-168.8,0-237.888,0-406.72,0L 307.232,160 z"  />
<glyph unicode="&#xe067;" d="M 732.864,388.64c-89.376,153.312-335.232,150.88-335.232,150.88l-66.176,0 L 331.456,672 L 0.032,428.992l 331.424-242.816l0,154.496 l 36.864,0 
	c0,0, 186.976,30.176, 286.912-70.624C 713.44,211.264, 722.048,32, 722.048,32S 817.824,242.688, 732.864,388.64z"  />
<glyph unicode="&#xe068;" d="M 682.688,132.64L 480,527.872L 480,659.136 l 3.264,0 c 17.888,0, 29.76,17.76, 29.76,38.432C 512.992,716.512, 505.248,736, 487.008,736L 281.408,736 
			c-15.648,0-26.56-14.816-26.56-38.432c0-24.448, 13.536-38.432, 28.064-38.432L 288,659.136 l0-131.264 L 85.344,132.64C 36.64,42.112, 74.144-32, 168.832-32l 430.336,0 
			C 693.824-32, 731.36,42.112, 682.688,132.64z M 224,249.568l 128,265.184L 352,659.136 l 64,0 l0-144.384 l 128-265.184L 224,249.568 z"  />
<glyph unicode="&#xe069;" d="M 595.456,736L 178.080,736 C 150.432,736, 128,714.496, 128,688l0-672 C 128-10.496, 150.432-32, 178.080-32l 417.376,0 
				C 623.136-32, 640-10.496, 640,16l0,672 C 640,714.496, 623.136,736, 595.456,736z M 384,16c-82.976,0-144.672,64.512-144.672,144S 301.024,304, 384,304
				s 144.672-64.512, 144.672-144S 466.976,16, 384,16z M 576,376c0-13.28-7.456-24-21.344-24L 213.344,352 C 199.52,352, 192,362.72, 192,376L 192,642.656 
				C 192,655.936, 199.52,672, 213.344,672l 341.312,0 C 568.544,672, 576,655.936, 576,642.656L 576,376 zM 330.656,160A53.344,53.344 180 1 1 437.344,160A53.344,53.344 180 1 1 330.656,160z"  />
<glyph unicode="&#xe06a;" d="M 384,736C 171.872,736,0,564.128,0,352s 171.872-384, 384-384s 384,171.872, 384,384S 596.128,736, 384,736z M 355.552,565.344
	c0,7.84, 6.336,14.208, 14.208,14.208l 56.864,0 c 7.872,0, 14.208-6.368, 14.208-14.208l0-56.896 c0-7.84-6.336-14.208-14.208-14.208l-56.864,0 
	c-7.872,0-14.208,6.368-14.208,14.208L 355.552,565.344 z M 497.792,195.552c0-7.872-6.368-14.208-14.208-14.208l-56.896,0 l-56.864,0 L 312.864,181.344 
	c-7.84,0-14.208,6.336-14.208,14.208L 298.656,224 c0,7.872, 6.368,14.208, 14.208,14.208l 42.688,0 l0,142.208 L 284.448,380.416 c-7.84,0-14.208,6.368-14.208,14.208l0,28.48 
	c0,7.84, 6.368,14.208, 14.208,14.208l 85.344,0 l 56.864,0 c 7.872,0, 14.208-6.368, 14.208-14.208l0-28.48 l0-156.448 l 42.688,0 c 7.84,0, 14.208-6.336, 14.208-14.208
	L 497.76,195.552 z"  />
<glyph unicode="&#xe06b;" d="M 480,443.424l-144-205.728l-95.296,66.176L 240,283.424l-5.664,2.016l 4.416-3.104L 144,192l-24-32l 528,0 l0,32 l-48,160
			L 480,443.424z M 216,420.576C 255.744,420.576, 288,451.264, 288,489.12C 288,527.040, 255.744,557.728, 216,557.728S 144,527.040, 144,489.12
			C 144,451.264, 176.256,420.576, 216,420.576z M 683.392,672L 90.24,672 C 32.544,672,0,638.336,0,585.696l0-465.6 C0,72.128, 27.616,32, 87.808,32L 673.6,32 
			c 56.48,0, 94.4,39.008, 94.4,93.984L 768,591.872 C 768,636, 737.472,672, 683.392,672z M 704,123.424C 704,110.816, 685.248,96, 672,96L 96,96 
			c-13.248,0-32,14.816-32,27.424L 64,580.576 C 64,593.152, 82.752,608, 96,608l 576,0 c 13.248,0, 32-19.392, 32-32L 704,123.424 z"  />
<glyph unicode="&#xe06c;" d="M 384,486.432c-72.832,0-132-60.256-132-134.496S 311.168,217.568, 384,217.568c 72.832,0, 132,60.128, 132,134.368
		S 456.832,486.432, 384,486.432z M 384,284.832c-36.48,0-65.984,29.984-65.984,67.104S 347.52,419.36, 384,419.36c 36.512,0, 65.984-30.304, 65.984-67.424
		S 420.512,284.832, 384,284.832zM 640,736L 128,736 C 57.6,736,0,678.368,0,608l0-512 c0-70.432, 57.6-128, 128-128l 512,0 c 70.432,0, 128,57.568, 128,128L 768,608 C 768,678.368, 710.432,736, 640,736z
		 M 384,150.24c-145.792,0-264,204.384-264,204.384S 238.208,553.76, 384,553.76c 145.824,0, 264-199.136, 264-199.136S 529.824,150.24, 384,150.24z"  />
<glyph unicode="&#xe06d;" d="M 640,736L 128,736 C 57.6,736,0,678.368,0,608l0-512 c0-70.432, 57.6-128, 128-128l 512,0 c 70.432,0, 128,57.568, 128,128L 768,608 C 768,678.368, 710.432,736, 640,736z M 256,288L 128,288 
	l0,128 l 128,0 L 256,288 z M 448,288l-128,0 l0,128 l 128,0 L 448,288 z M 640,288l-128,0 l0,128 l 128,0 L 640,288 z"  />
<glyph unicode="&#xe06e;" d="M 32,736l 64.064-686.944L 383.552-32l 288.256,81.184L 736,736L 32,736 z M 596.256,512L 266.336,512 l 9.984-96l 312.224,0 l-24.256-275.296
			l-180.352-52.352l-180.96,52.352l-12.32,136L 288,276.704 l 8.32-55.488l 87.264-26.848l 0.192,0.128l 98.144,26.816L 492.16,320L 186.752,320 L 162.944,608l 441.472,0 
			L 596.256,512z"  />
<glyph unicode="&#xe06f;" d="M 384,640c 158.816,0, 288-129.184, 288-288s-129.184-288-288-288s-288,129.184-288,288S 225.184,640, 384,640 M 384,736C 171.936,736,0,564.064,0,352
			s 171.936-384, 384-384s 384,171.936, 384,384S 596.064,736, 384,736L 384,736z M 514.112,290.112l-82.112,82.24L 432,544 l-96.576,0 l0-191.808 c0-14.432, 6.688-26.88, 16.672-35.808
			l 94.112-94.112L 514.112,290.112z"  />
<glyph unicode="&#xe070;" d="M 384,736C 171.936,736,0,564.064,0,352s 171.936-384, 384-384c 212.064,0, 384,171.936, 384,384S 596.064,736, 384,736z M 240,352
			c0,79.488, 64.448,144, 144,144c 79.552,0, 144-64.512, 144-144s-64.448-144-144-144C 304.448,208, 240,272.512, 240,352z M 694.496,223.36
			L 694.496,223.36l-133.088,55.136C 570.816,301.152, 576,326.016, 576,352s-5.184,50.848-14.592,73.504l 91.584,37.92l 41.504,17.216
			C 710.912,440.96, 720,397.568, 720,352S 710.912,263.040, 694.496,223.36L 694.496,223.36z M 512.64,662.496L 512.64,662.496L 512.64,662.496l-55.136-133.056
			C 434.848,538.816, 410.016,544, 384,544s-50.848-5.184-73.504-14.56L 284.672,591.808L 255.392,662.496C 295.040,678.912, 338.432,688, 384,688
			S 472.96,678.912, 512.64,662.496z M 73.504,480.64l 70.688-29.28l 62.4-25.856C 197.184,402.848, 192,377.984, 192,352s 5.184-50.848, 14.592-73.504L 73.504,223.36
			C 57.088,263.040, 48,306.432, 48,352S 57.088,440.96, 73.504,480.64z M 255.392,41.504l 17.184,41.504l 37.92,91.552C 333.152,165.184, 357.984,160, 384,160
			s 50.848,5.184, 73.504,14.56l 55.136-133.056l0,0l0,0C 472.96,25.088, 429.568,16, 384,16S 295.040,25.088, 255.392,41.504z"  />
<glyph unicode="&#xe071;" d="M 384,736C 171.872,736,0,564.128,0,352s 171.872-384, 384-384s 384,171.872, 384,384S 596.128,736, 384,736z M 426.688,152.864
	c0-7.84-6.368-14.208-14.24-14.208l-56.864,0 c-7.872,0-14.24,6.368-14.24,14.208l0,56.896 c0,7.84, 6.368,14.208, 14.24,14.208l 56.864,0 
	c 7.872,0, 14.24-6.368, 14.24-14.208L 426.688,152.864 z M 454.304,350.144c-25.952-19.168-40.608-30.944-40.608-50.080l0-19.2 L 356.8,280.864 l0,19.2 
	c0,48.736, 35.328,74.88, 63.648,95.84c 29.856,22.080, 48.16,37.12, 48.064,66.4c-0.16,40.064-45.152,61.568-88.896,60.864
	c-45.92-0.064-99.488-22.624-99.488-85.888L 223.264,437.28 c0,97.92, 80.992,142.624, 156.256,142.752c 0.128,0, 0.224,0, 0.32,0
	c 72.224,0, 145.312-40.32, 145.632-117.504C 525.632,402.912, 484.448,372.416, 454.304,350.144z"  />
<glyph unicode="&#xe072;" d="M 384,630.88C 216.672,801.568-47.264,645.312, 7.296,450.368C 56.224,275.264, 368.032,132.32, 384,0
	c 15.968,132.32, 327.776,275.264, 376.736,450.368C 815.2,645.312, 551.264,801.568, 384,630.88z"  />
<glyph unicode="&#xe073;" d="M 384,736C 171.872,736,0,564.128,0,352s 171.872-384, 384-384s 384,171.872, 384,384S 596.128,736, 384,736z M 384,177.056
	c-44.928,44.928-195.36,105.248-195.36,201.632c0,113.504, 124.064,167.936, 195.36,38.752c 59.136,132.576, 195.328,76.32, 195.328-38.752
	C 579.328,282.304, 429.248,222.368, 384,177.056z"  />
<glyph unicode="&#xe074;" d="M 64,672L 320,672L 320,416L 64,416zM 448,672L 704,672L 704,416L 448,416zM 64,288L 320,288L 320,32L 64,32zM 448,288L 704,288L 704,32L 448,32z"  />
<glyph unicode="&#xe075;" d="M 99.232,544L 512,544 L 512,640 l 256-164.512L 512,320l0,96 L 156.512,416 C 141.248,416, 128,403.872, 128,391.488l0-175.488 C 128,203.616, 139.488,192, 152.992,192l 432.832,0 
	l0-13.088 c0-64.48-66.112-114.912-117.088-114.912L 100.768,64 C 51.808,64,0,110.976,0,167.488L0,457.504 C0,502.88, 43.776,544, 99.232,544z"  />
<glyph unicode="&#xe076;" d="M 668.736,544L 256,544 L 256,640 L0,475.488L 256,320l0,96 l 355.488,0 C 626.752,416, 640,403.872, 640,391.488l0-175.488 c0-12.384-11.488-24-24.992-24
	L 182.144,192 l0-13.088 C 182.144,114.432, 248.288,64, 299.264,64l 367.968,0 C 716.192,64, 768,110.976, 768,167.488L 768,457.504 C 768,502.88, 724.224,544, 668.736,544z"  />
<glyph unicode="&#xe077;" d="M 640,736L 128,736 C 57.632,736,0,678.368,0,608l0-512 c0-70.432, 57.632-128, 128-128l 512,0 c 70.432,0, 128,57.568, 128,128L 768,608 C 768,678.368, 710.432,736, 640,736z
	 M 539.456,280.192c-6.336-6.208-14.592-9.312-22.848-9.312c-8.48,0-16.928,3.296-23.328,9.824L 416.64,359.040l0-206.016 
	c0-18.016-14.624-32.672-32.64-32.672c-18.048,0-32.672,14.624-32.672,32.672l0,209.472 l-80.064-81.792c-6.4-6.528-14.88-9.824-23.328-9.824
	c-8.256,0-16.48,3.104-22.848,9.312c-12.864,12.608-13.088,33.28-0.48,46.144l 132.64,135.552c 6.816,6.944, 16,10.080, 25.024,9.632
	C 382.848,471.552, 383.392,471.712, 384,471.712c 0.032,0, 0.096-0.032, 0.16-0.032c 2.080-0.032, 4.224-0.224, 6.272-0.64
	c 0.192-0.064, 0.384-0.128, 0.608-0.16c 1.92-0.448, 3.776-0.992, 5.632-1.76c 1.184-0.512, 2.272-1.216, 3.392-1.888
	c 0.96-0.544, 1.952-1.056, 2.848-1.728c 1.536-1.088, 2.976-2.24, 4.288-3.552c 0.032-0.032, 0.096-0.064, 0.128-0.096l 132.672-135.552
	C 552.608,313.472, 552.352,292.768, 539.456,280.192z M 527.040,512l-286.080,0 C 222.912,512, 208.32,525.6, 208.32,543.616S 222.912,576, 240.928,576l 285.216,0 
	c 18.016,0, 33.536-13.696, 33.536-31.712C 559.68,526.272, 545.024,512, 527.040,512z"  />
<glyph unicode="&#xe078;" d="M 383.52,435.968c-46.272,0-83.968-37.6-83.968-83.968s 37.696-84.064, 83.968-84.064c 46.4,0, 84,37.696, 84,84.064
		S 429.952,435.968, 383.52,435.968zM 640,736L 128,736 C 57.632,736,0,678.368,0,608l0-512 c0-70.432, 57.632-128, 128-128l 512,0 c 70.432,0, 128,57.568, 128,128L 768,608 C 768,678.368, 710.432,736, 640,736z
		 M 608,324.416l-67.008-28.544c-1.92-5.248-3.712-10.24-6.080-15.296l 27.52-66.848l-39.552-39.68l-67.2,27.008
		c-4.96-2.496-10.208-4.512-15.488-6.432L 412.352,128l-55.904,0 l-28.32,66.176c-5.632,1.952-11.008,4.064-16.352,6.56l-66.080-27.264
		L 206.112,213.12l 26.624,66.432c-2.624,5.312-4.768,10.848-6.912,16.576L 160,323.52l0,56 l 65.856,28.16c 2.016,5.76, 4.128,11.264, 6.816,16.64
		l-27.2,66.048l 39.616,39.552l 66.496-26.816c 5.312,2.56, 10.688,4.64, 16.256,6.688L 355.552,576l 55.968,0 l 28.416-66.496
		c 5.376-1.984, 10.528-3.968, 15.616-6.464l 66.656,27.456l 39.616-39.68l-27.040-67.2c 2.464-4.928, 4.32-10.048, 6.208-15.328L 608,380.448L 608,324.416 z"  />
<glyph unicode="&#xe079;" d="M 640,736L 128,736 C 57.632,736,0,678.368,0,608l0-512 c0-70.432, 57.632-128, 128-128l 512,0 c 70.432,0, 128,57.568, 128,128L 768,608 C 768,678.368, 710.432,736, 640,736z
	 M 443.424,148.8c0-16.672-13.568-30.208-30.24-30.208l-56.864,0 c-16.672,0-30.24,13.568-30.24,30.208l0,56.896 c0,16.672, 13.568,30.208, 30.24,30.208
	l 56.864,0 c 16.672,0, 30.24-13.568, 30.24-30.208L 443.424,148.8 z M 464.576,333.216c-25.6-18.912-34.080-26.912-34.080-37.216l0-35.2 l-88.896,0 l0,35.2 
	c0,56.8, 40.544,86.816, 70.112,108.704c 29.632,21.92, 41.664,32.864, 41.6,53.472c-0.128,29.184-36.608,44.96-70.88,44.96
	c-15.968-0.064-85.536-3.488-85.536-69.92l0-16 L 208,417.216 l0,16 c0,108.864, 89.28,158.624, 172.224,158.752c 80.416,0, 161.632-45.856, 161.984-133.44
	C 542.4,390.72, 495.552,356.128, 464.576,333.216z"  />
<glyph unicode="&#xe07a;" d="M 459.104,473.952c0,27.392-20.992,49.728-46.816,49.728l-56.576,0 c-25.824,0-46.816-22.304-46.816-49.728L 308.896,384 l 150.176,0 L 459.072,473.952 zM 640,736L 128,736 C 57.632,736,0,678.368,0,608l0-512 c0-70.432, 57.632-128, 128-128l 512,0 c 70.432,0, 128,57.568, 128,128L 768,608 C 768,678.368, 710.432,736, 640,736z
		 M 546.656,157.12c0-16.096-11.808-29.12-26.4-29.12L 250.4,128 C 235.84,128, 224,141.024, 224,157.12l0,197.76 C 224,370.976, 235.84,384, 250.4,384l 9.152,0 L 259.552,473.952 
		C 259.552,530.24, 302.752,576, 355.712,576l 56.576,0 c 52.992,0, 96.16-45.76, 96.16-102.048L 508.448,384 l 11.808,0 c 14.592,0, 26.4-13.024, 26.4-29.12L 546.656,157.12 z"  />
<glyph unicode="&#xe07b;" d="M 640,736L 128,736 C 57.632,736,0,678.368,0,608l0-512 c0-70.432, 57.632-128, 128-128l 512,0 c 70.432,0, 128,57.568, 128,128L 768,608 C 768,678.368, 710.432,736, 640,736z
	 M 587.36,431.136l-244.256-244.192c-7.008-6.944-14.016-5.76-19.808,0.064l-128.384,128.512c-4.192,4-4.064,11.072, 1.568,16.8l 60.736,61.056
	c 5.952,5.888, 10.624,8.192, 17.888,0.8l 58.176-57.984l 172.32,172.256c 4.576,4.576, 13.312,5.056, 18.816-0.512l 60.8-59.872
	C 590.88,442.432, 591.936,435.744, 587.36,431.136z"  />
<glyph unicode="&#xe07c;" d="M 659.232,732.32c-97.792-31.008-179.2-478.88-179.2-478.88L 582.4,253.44 L 582.4-32 L 736-32 L 736,612.608 C 736,678.72, 726.176,753.536, 659.232,732.32z
			 M 364.8,732.32c-14.112,0-25.6-10.784-25.6-24l0-167.552 c0-6.592-11.488-11.968-25.632-11.968c-14.080,0-25.6,5.376-25.6,11.968L 287.968,708.32 
			c0,13.216-11.456,24-25.6,24s-25.632-10.784-25.632-24l0-167.552 c0-6.592-11.456-11.968-25.6-11.968c-14.080,0-25.568,5.376-25.568,11.968
			L 185.568,708.32 c0,13.216-11.52,24-25.632,24s-25.568-10.784-25.568-24l0-167.552 c0-6.592-11.488-11.968-25.632-11.968S 83.2,534.176, 83.2,540.768L 83.2,708.32 
			c0,13.216-11.456,24-25.568,24C 43.456,732.32, 32,721.536, 32,708.32l0-167.552 l0-47.872 c0-21.184, 20.064-32.992, 42.4-47.872
			c 28.16-18.752, 60.032-42.368, 60.032-95.808L 134.432-32 L 288-32 L 288,349.216 c0,53.44, 31.808,77.056, 59.968,95.808C 370.336,459.904, 390.4,471.712, 390.4,492.896L 390.4,540.768 L 390.4,708.32 
			C 390.4,721.536, 378.944,732.32, 364.8,732.32z"  />
<glyph unicode="&#xe07d;" d="M 384,640C 171.936,640,0,355.744,0,355.744S 171.936,64, 384,64s 384,291.744, 384,291.744S 596.064,640, 384,640z M 384,160
			c-106.016,0-192,85.984-192,192c0,105.984, 85.984,192, 192,192s 192-86.016, 192-192C 576,245.984, 490.016,160, 384,160z M 288,352c0-52.992, 42.976-96, 96-96s 96,43.008, 96,96
			s-42.976,96-96,96S 288,404.992, 288,352z"  />
<glyph unicode="&#xe07e;" d="M 695.968,672L 72,672 C 32.384,672,0,638.752,0,598.144l0-492.32 C0,65.248, 32.384,32, 72,32l 623.968,0 
			C 735.552,32, 768,65.248, 768,105.856L 768,598.144 C 768,638.752, 735.552,672, 695.968,672z M 299.040,347.104l-208.672-162.208L 90.368,570.752 L 299.040,347.104z M 132.256,580.608
			l 503.392,0 l-251.68-200.864L 132.256,580.608z M 307.008,338.4l 76.96-84.832l 77.024,84.832l 157.952-214.976L 149.056,123.424 L 307.008,338.4z M 468.928,347.104
			l 208.704,223.648l0-401.6 L 468.928,347.104z"  />
<glyph unicode="&#xe07f;" d="M 711.744,679.744c-74.88,75.008-196.64,75.008-271.488,0L 0.736,240.256L0-32l 271.488,0 l 440.256,440.256
			C 786.752,483.264, 786.752,604.736, 711.744,679.744z M 230.72,64L 94.976,64 l0,136.512 c 37.504,37.504, 98.24,37.504, 135.744,0
			C 268.192,163.040, 268.224,101.504, 230.72,64z M 642.112,476.128l-135.744,135.776c 37.504,37.44, 98.24,37.44, 135.744,0
			C 679.616,574.4, 679.616,513.632, 642.112,476.128z"  />
<glyph unicode="&#xe080;" d="M 35.136,315.36c 89.376-153.312, 335.264-150.88, 335.264-150.88l 66.176,0 L 436.576,32 L 768,275.008L 436.576,517.824l0-154.496 L 399.68,363.328 
	c0,0-187.008-30.176-286.944,70.624C 54.56,492.736, 45.952,672, 45.952,672S-49.824,461.312, 35.136,315.36z"  />
<glyph unicode="&#xe081;" d="M 732.832,315.36c-89.376-153.312-335.232-150.88-335.232-150.88l-66.176,0 L 331.424,32 L0,275.008l 331.424,242.816l0-154.496 l 36.864,0 
	c0,0, 187.008-30.176, 286.912,70.624C 713.408,492.736, 722.016,672, 722.016,672S 817.792,461.312, 732.832,315.36z"  />
<glyph unicode="&#xe082;" d="M 382.016,160c-18.56,0-37.024,20.896-37.024,20.896L 73.6,481.856c0,0-17.312,19.808-5.44,45.152
	C 76.224,544, 102.016,543.936, 102.016,543.936L 663.36,543.936 c0,0, 31.264,2.56, 39.264-21.472c 7.264-21.856-16.384-47.904-16.384-47.904l-266.496-292.832
	C 419.744,181.728, 400.736,160, 382.016,160z"  />
<glyph unicode="&#xe083;" d="M 576,275.232L 384-32l-192,307.232l 144,0 c0,168.832,0,237.92,0,406.72c0,72.096, 96,72.096, 96,0c0-168.8,0-237.888,0-406.72L 576,275.232 z"  />
<glyph unicode="&#xe084;" d="M 512,352.064C 512,281.376, 454.72,224, 384,224c-70.688,0-128,57.376-128,128.064C 256,422.688, 313.312,480, 384,480
	C 454.72,480, 512,422.688, 512,352.064z"  />
<glyph unicode="&#xe085;" d="M 128,352A256,256 180 1 1 640,352A256,256 180 1 1 128,352z"  />
<glyph unicode="&#xe086;" d="M 384,736L 80,352L 384-32l 304,384L 384,736z"  />
<glyph unicode="&#xe087;" d="M 576,736l 192,0 l0-768 l-192,0 L 576,736 z M 288,544l 192,0 l0-576 L 288-32 L 288,544 z M0,352l 192,0 l0-384 L0-32 L0,352 z"  />
<glyph unicode="&#xe088;" d="M 114.24,736L 88.544,608l 524.768,0 l-16.384-96L 71.776,512 l-25.44-128l 524.768,0 l-29.312-187.2l-225.44-80.768L 147.072,193.28l 12.512,85.344
			L 30.688,278.624 L0,107.136L 303.168-32l 349.504,128.192L 768,736L 114.24,736 z"  />
<glyph unicode="&#xe089;" d="M 384,704c 212.064,0, 384-136.64, 384-305.216c0-168.576-171.936-305.248-384-305.248c-20.416,0-40.384,1.312-59.872,3.712
			C 241.696,16.544, 143.2,2.144, 48,0l0,19.744 c 51.392,24.576, 96,69.472, 96,120.768c0,7.136-0.576,14.176-1.632,21.056
			C 55.52,217.568,0,303.008,0,398.784C0,567.36, 171.936,704, 384,704z"  />
<glyph unicode="&#xe08a;" d="M 64.064,32.096c0,0-1.568-28.352, 12.544-45.088c 17.984-21.632, 48.768-18.88, 48.768-18.88l 450.688,0 
				c0,0, 34.4,0.128, 51.168,20.576c 14.048,17.088, 12.8,43.392, 12.8,43.392L 64.128,32.096 L 64.064,32.096 zM 576.064,416.064c-12.736,0-24-0.256-36.576,0L 128.064,416.064 c0,0,0-207.008,0-276.448c0-21.536, 11.008-43.52, 40.992-43.52
				c 16.256,0, 321.888,0, 336,0c 25.984,0, 39.008,15.008, 39.008,43.52c0,7.808,0,30.912,0,30.912c 11.648-3.392, 19.264-5.312, 32-5.312
				c 70.72,0, 127.968,56.096, 127.968,125.408C 704.032,359.872, 646.784,416.064, 576.064,416.064z M 576.064,219.008c-13.44,0-21.216,3.776-32,9.984l0,123.424 
				c 10.784,6.144, 18.56,9.952, 32,9.952c 40.384,0, 73.152-32.16, 73.152-71.712C 649.216,251.040, 616.448,219.008, 576.064,219.008zM 336,480c0,0-4.128,2.368-10.528,7.68C 319.136,493.088, 310.336,501.408, 302.56,514.24
		C 298.752,520.672, 294.912,528.256, 292.992,537.44C 292.352,539.648, 292.192,542.112, 291.808,544.576L 291.552,546.368L 291.424,548.48L 291.264,551.552
		C 291.168,556.736, 291.648,562.176, 292.736,567.008c 4.128,20.256, 15.264,38.016, 26.784,52.8c 11.456,14.912, 23.904,28.096, 31.040,39.872
		c 1.696,2.944, 2.88,5.76, 3.744,8.256c 0.48,0.928, 0.672,3.136, 0.992,2.944l 0.32,6.016c 0.096,5.568-0.736,12.384-2.144,18.336
		c-3.040,12.096-7.808,22.4-11.36,29.536C 338.496,731.936, 336,736, 336,736s 4.384-1.984, 11.072-7.104c 6.56-5.152, 15.872-13.216, 23.552-26.464
		c 3.872-6.624, 7.392-14.176, 9.12-24.256l 0.928-5.952c 0.192-4.192, 0.128-6.048-0.192-9.184c-0.64-5.6-2.368-10.752-4.352-15.552
		c-8.16-19.072-20.672-33.12-31.328-47.232c-10.752-13.92-20.512-27.168-25.056-40.352C 318.56,556.512, 317.888,553.568, 317.12,550.56L 316.672,547.488
		C 316.64,547.264, 316.512,545.952, 316.512,546.56L 316.448,545.376c-0.064-1.632-0.384-3.2-0.192-4.8c 0.16-6.368, 1.056-13.024, 2.816-19.136
		c 3.328-12.256, 7.936-22.688, 11.328-29.952C 333.76,484.192, 336,480, 336,480z"  />
<glyph unicode="&#xe08b;" d="M 0.064,146.368c0,0-1.92-36.576, 14.976-58.144c 21.6-27.744, 58.496-24.064, 58.496-24.064l 555.136,0 
		c0,0, 34.784,0, 54.976,26.272c 16.896,21.984, 18.528,55.936, 18.528,55.936l0,9.824 L 0.064,156.192 L 0.064,146.368 zM 614.368,640c-15.264,0-28.736-0.32-43.872,0L 87.744,640 l0-355.456 c0,0-1.824-36.48, 15.008-58.176
		c 21.536-27.776, 58.464-24.096, 58.464-24.096l 335.712,0 c0,0, 34.848,0, 54.976,26.272c 16.96,22.016, 18.592,56, 18.592,56l0,39.712 
		c 13.984-4.384, 28.64-6.848, 43.872-6.848c 84.832,0, 153.632,72.224, 153.632,161.28C 768,567.808, 699.232,640, 614.368,640z M 614.368,386.56
		c-16.064,0-30.912,4.896-43.872,12.832L 570.496,558.080 c 12.96,7.936, 27.808,12.8, 43.872,12.8c 48.512,0, 87.776-41.28, 87.776-92.224
		C 702.144,427.808, 662.88,386.56, 614.368,386.56z"  />
<glyph unicode="&#xe08c;" d="M 593.888,441.472c-45.088,0-85.632-18.496-114.432-48.608c-12.224-12.672-33.376-27.808-56.384-41.088
			c 10.816,40.416, 44.832,91.296, 68.512,113.6c 30.272,28.672, 48.8,68.864, 48.8,113.632C 540.384,665.184, 470.528,735.072, 384,736
			C 297.472,735.072, 227.616,665.184, 227.616,579.008c0-44.704, 18.592-84.96, 48.864-113.632c 23.616-22.304, 57.664-73.184, 68.48-113.6
			c-22.944,13.28-44.16,28.416-56.384,41.088c-28.8,30.080-69.344,48.608-114.4,48.608C 86.752,441.472, 16,371.2, 16,284.448
			s 70.752-156.992, 158.144-156.992c 45.056,0, 85.6,19.008, 114.4,49.056c 12.864,13.44, 35.52,30.112, 59.808,43.968
			c-2.304-110.784-56.16-192.096-110.944-224.16L 237.408-32 L 384-32 l 146.624,0 l0,28.32 c-54.784,32.064-108.672,113.44-110.944,224.192
			c 24.32-13.888, 46.944-30.56, 59.744-44c 28.8-30.048, 69.344-49.056, 114.432-49.056c 87.328,0, 158.112,70.24, 158.112,157.024
			C 752,371.2, 681.216,441.472, 593.888,441.472z"  />
<glyph unicode="&#xe08d;" d="M 576,640.032c-8.992,0-17.728-1.536-26.464-2.624C 516.128,696.448, 454.176,736, 384,736C 312.32,736, 250.368,696.064, 217.408,637.536
			C 208.928,638.688, 200.608,640.032, 192,640.032c-105.888,0-192-86.080-192-192.032s 86.112-186.336, 192-186.336l 384,0 c 105.984,0, 192,80.416, 192,186.336S 681.984,640.032, 576,640.032
			z M 576,352L 192,352 c-52.896,0-96,43.104-96,96c0,52.672, 46.624,93.184, 96.096,94.688C 192.288,520, 196.16,497.856, 204.064,476.896l 89.92,33.536
			C 289.984,521.152, 288,532.416, 288,543.968c0,52.928, 43.104,96.064, 96,96.064c 31.072,0, 59.104-15.392, 76.896-39.424C 414.432,565.568, 384,510.496, 384,448l 96,0 
			c0,52.832, 43.136,95.968, 96,95.968S 672,500.832, 672,448C 672,395.104, 628.864,352, 576,352z M 384,256l-144-152.48l 98.848,0 L 338.848-32 l 90.368,0 l0,135.52 L 528,103.52 L 384,256z"  />
</font>
</defs>
</svg>
